<svg xmlns="http://www.w3.org/2000/svg" width="321" height="172" version="1.0" viewBox="0 0 240.75 129"><defs><clipPath id="a"><path d="M1.2148 1H239v126.3672H1.2148Zm0 0"/></clipPath><clipPath id="b"><path d="M12 .1016h210V60H12Zm0 0"/></clipPath></defs><path fill="#fff" d="M109.7516 70.6717c-.625 0-1.1484-.1953-1.5625-.5938-.418-.4062-.625-.8984-.625-1.4844 0-.5937.207-1.0859.625-1.4843.414-.3946.9375-.5938 1.5625-.5938s1.1407.1992 1.5469.5938c.414.3984.625.8906.625 1.4843 0 .586-.211 1.0782-.625 1.4844-.4063.3985-.9219.5938-1.5469.5938Zm1.75 1.6718v14.0157h-3.5468V72.3435Zm0 0"/><g clip-path="url(#a)"><path fill="#f7b3d0" d="M214.1484 56.3633c1.5352-.4258 3.3438-.336 4.9258.0234 1.5.332 2.918.957 4.1211 1.8047.3633.3281 1.8125 1.9922 2.9688 3.375.3086.3633.7539.586 1.2304.6094.4727.0195.9453-.1602 1.2774-.5.0195-.0196.0312-.0313.0469-.0508.0039-.0078.0156-.0117.0234-.0195.0156-.0157.0273-.0274.043-.0508a.1215.1215 0 0 0 .0234-.0156c.0195-.0196.0273-.0274.0469-.0508.0039-.0078.0156-.0117.0234-.0196a.292.292 0 0 0 .043-.0507.1216.1216 0 0 0 .0234-.0157.6504.6504 0 0 0 .0469-.0507c.0039-.0078.0156-.0118.0195-.0157.0196-.0195.0313-.0312.0469-.0547.0078-.0039.0156-.0078.0234-.0156a.6505.6505 0 0 0 .047-.0508c.0038-.0039.0155-.0117.0194-.0156.0196-.0195.0313-.0312.047-.0508.0038-.0078.0155-.0117.0233-.0195a.292.292 0 0 0 .043-.0508.1216.1216 0 0 0 .0235-.0156.6006.6006 0 0 0 .0468-.0508c.004-.0078.0157-.0117.0235-.0195.0156-.0156.0273-.0274.043-.0508a.1215.1215 0 0 0 .0234-.0156c.0156-.0156.0273-.0274.0469-.0508.0039-.0078.0156-.0117.0195-.0195a.1962.1962 0 0 0 .0469-.0508c.0078-.004.0156-.0117.0234-.0156a.6502.6502 0 0 0 .0469-.0508c.0039-.004.0156-.0117.0195-.0156.0195-.0196.0313-.0313.0469-.0508.0039-.0078.0156-.0117.0234-.0196a.2919.2919 0 0 0 .043-.0507.1216.1216 0 0 0 .0234-.0157c.0196-.0195.0274-.0312.0469-.0507.0039-.0079.0156-.0118.0234-.0196a.292.292 0 0 0 .043-.0508.1216.1216 0 0 0 .0234-.0156c.0157-.0156.0274-.0273.047-.0508.0038-.0078.0155-.0117.0233-.0195a.292.292 0 0 0 .043-.0508.1216.1216 0 0 0 .0235-.0156.6505.6505 0 0 0 .0468-.0508c.004-.0078.0157-.0117.0196-.0156.0195-.0195.0312-.0313.0468-.0547.004-.0039.0157-.0078.0235-.0156.0156-.0156.0273-.0274.043-.0508a.1216.1216 0 0 0 .0234-.0156c.0195-.0196.0312-.0313.0469-.0508.0039-.0078.0156-.0117.0234-.0195a.2918.2918 0 0 0 .043-.0508.1215.1215 0 0 0 .0234-.0156c.0156-.0196.0273-.0274.0469-.0508.0039-.0078.0156-.0117.0234-.0196a.2919.2919 0 0 0 .043-.0507.1216.1216 0 0 0 .0234-.0157c.0156-.0156.0274-.0273.0469-.0507.0039-.0079.0156-.0118.0195-.0157a.315.315 0 0 0 .0469-.0547.0817.0817 0 0 0 .0234-.0156c.0157-.0156.0274-.0273.043-.0508a.1215.1215 0 0 0 .0234-.0156c.0196-.0195.0313-.0312.047-.0508.0038-.0078.0155-.0117.0234-.0195a.292.292 0 0 0 .043-.0508.1216.1216 0 0 0 .0234-.0156c.0195-.0195.0273-.0273.0468-.0508.004-.0078.0157-.0117.0235-.0195.0156-.0156.0273-.0274.043-.0508a.1216.1216 0 0 0 .0234-.0156.6505.6505 0 0 0 .0469-.0508c.0039-.0078.0156-.0117.0195-.0195a.1961.1961 0 0 0 .0469-.0508.0817.0817 0 0 0 .0234-.0156.6505.6505 0 0 0 .0469-.0508c.0039-.004.0156-.0117.0195-.0157a.5546.5546 0 0 0 .0469-.0507c.0039-.0078.0156-.0117.0234-.0196.0156-.0156.0274-.0273.043-.0507a.1215.1215 0 0 0 .0234-.0157c.0196-.0195.0274-.0312.0469-.0508.004-.0078.0156-.0117.0234-.0195.0157-.0156.0274-.0273.043-.0508a.1215.1215 0 0 0 .0234-.0156.6502.6502 0 0 0 .047-.0508c.0038-.0078.0155-.0117.0234-.0195a.292.292 0 0 0 .043-.0508c.0077-.0039.0155-.0117.0234-.0156a.6504.6504 0 0 0 .0468-.0508c.004-.0078.0157-.0117.0196-.0156.0195-.0195.0312-.0313.0468-.0508.004-.0078.0157-.0117.0235-.0195a.292.292 0 0 0 .043-.0508.1216.1216 0 0 0 .0234-.0156c.0195-.0196.0312-.0313.0469-.0508.0039-.0078.0156-.0117.0234-.0195a.292.292 0 0 0 .043-.0508.1216.1216 0 0 0 .0234-.0157c.0156-.0195.0274-.0273.0469-.0507.0039-.0078.0156-.0117.0234-.0196.0156-.0156.0274-.0273.043-.0507a.1215.1215 0 0 0 .0234-.0157c.0156-.0156.0274-.0273.0469-.0508.004-.0078.0156-.0117.0195-.0156.1602-.1601.1602-.1601 6.4532-11.086.4648-.8046.1953-1.832-.6016-2.3085-7.6875-4.5938-15.9961-8.8438-25.4688-6.0234-3.328.9882-6.289 2.7695-8.668 5.1484-.0234.0234-.0429.0469-.0663.0664l-.0703.0703c-.0196.0234-.043.043-.0665.0664l-.0703.0703c-.0195.0235-.043.043-.0664.0664-.0234.0235-.0468.047-.0664.0703-.0234.0196-.0469.043-.0703.0665-.0234.0234-.043.0468-.0664.0664l-.0703.0703c-.0234.0234-.043.0468-.0664.0664l-.0703.0703c-.0196.0234-.043.043-.0664.0664a1.0983 1.0983 0 0 0-.0664.0703c-.0235.0195-.047.043-.0703.0664-.0235.0235-.043.0469-.0665.0703-.0234.0196-.0468.043-.0703.0664-.0234.0235-.043.047-.0664.0664l-.0703.0704c-.0195.0234-.043.043-.0664.0664-.0234.0234-.0469.0468-.0664.0703-.0234.0195-.0469.043-.0703.0664-.0234.0234-.0469.0469-.0664.0703a1.0977 1.0977 0 0 0-.0703.0664c-.0235.0234-.043.0469-.0664.0664l-.0703.0703c-.0196.0235-.043.043-.0665.0664l-.0703.0703c-.0195.0235-.043.043-.0664.0664-.0234.0235-.0469.047-.0664.0704-.0234.0195-.0469.043-.0703.0664-.0234.0234-.043.0468-.0664.0664l-.0703.0703a.5333.5333 0 0 1-.0664.0664l-.0703.0703c-.0196.0234-.043.043-.0664.0664-.0235.0234-.047.0469-.0664.0703-.0235.0196-.047.043-.0704.0664-.0234.0235-.043.0469-.0664.0703a1.0975 1.0975 0 0 0-.0703.0664c-.0234.0235-.043.047-.0664.0665l-.0703.0703c-.0195.0234-.043.043-.0664.0664a1.0977 1.0977 0 0 0-.0664.0703c-.0234.0195-.0469.043-.0703.0664-.0235.0234-.0469.0469-.0664.0703-.0235.0195-.0469.043-.0703.0664-.0235.0234-.043.0469-.0664.0664l-.0704.0703c-.0195.0235-.043.043-.0664.0664-.0234.0235-.0468.047-.0664.0703-1.8593 1.836-3.3672 4.047-4.418 6.5196a19.6099 19.6099 0 0 0-.8554 2.4804 73.1113 73.1113 0 0 0 .0664-6.4765l-.0664-7.7188c-.0078-.8164-.5977-1.5156-1.4024-1.6601-2.9921-.539-5.9375-.414-8.793-.3008-1.621.0664-3.3007.1367-4.9296.0742a1.6865 1.6865 0 0 0-1.3399.5781c-.0078.004-.0078.0118-.0117.0157a.783.783 0 0 1-.0586.0507c-.0039.0079-.0039.0118-.0078.0196-.0195.0156-.043.0312-.0586.0508-.0039.0039-.0039.0078-.0117.0156-.0156.0156-.039.0351-.0547.0508-.0078.0039-.0078.0117-.0117.0156a.679.679 0 0 1-.0586.0508c-.0039.0078-.0039.0117-.0117.0195-.0156.0156-.039.0352-.0547.0508-.0078.0039-.0078.0117-.0117.0156-.0195.0195-.039.0352-.0586.0508-.004.0078-.004.0117-.0117.0195-.0156.0156-.039.0313-.0547.0508-.0078.004-.0078.0117-.0117.0156a.7832.7832 0 0 1-.0586.0508c-.004.0078-.004.0117-.0078.0195-.0196.0157-.043.0313-.0586.0508-.004.004-.004.0117-.0118.0156-.0156.0157-.039.0352-.0546.0508-.0313.0157-.0313.0274-.0352.0352-.0195.0156-.039.0312-.0586.0508-.0039.0039-.0039.0117-.0117.0156-.0156.0195-.039.0351-.0547.0508-.0078.0078-.0078.0117-.0117.0195-.0156.0156-.039.0313-.0586.0508-.004.0039-.004.0117-.0078.0156a.7828.7828 0 0 0-.0586.0508c-.004.0078-.004.0117-.0117.0156-.0157.0195-.039.0352-.0547.0547-.0078.004-.0078.0078-.0117.0156-.0196.0157-.0391.0352-.0586.0508-.004.004-.004.0117-.0118.0156-.0156.0196-.039.0352-.0546.0508-.0078.0078-.0078.0117-.0118.0195a.679.679 0 0 0-.0585.0508c-.004.004-.004.0117-.0118.0157-.0156.0195-.039.0351-.0547.0507-.0078.0078-.0078.0117-.0117.0196-.0156.0156-.039.0312-.0586.0507-.0039.004-.0039.0118-.0078.0157a.7832.7832 0 0 0-.0586.0508c-.0039.0078-.0039.0117-.0117.0156-.0156.0195-.039.0351-.0547.0547-.0078.0039-.0078.0078-.0117.0156a.783.783 0 0 0-.0586.0508c-.0039.0039-.0039.0117-.0117.0156-.0156.0195-.039.0352-.0547.0508-.0078.0078-.0078.0117-.0117.0195-.0196.0156-.039.0352-.0586.0508-.004.0039-.004.0117-.0117.0156-.0157.0195-.039.0352-.0547.0508-.0078.0078-.0078.0117-.0117.0195-.0157.0157-.0391.0313-.0586.0508-.004.004-.004.0117-.0118.0156-.0156.0157-.039.0352-.0546.0508-.0078.0078-.0078.0117-.0118.0195-.0156.0157-.039.0313-.0546.0508-.0079.004-.0079.0117-.0118.0157a.783.783 0 0 0-.0586.0507c-.0039.004-.0039.0117-.0117.0157-.0156.0195-.039.0351-.0547.0507-.0078.0078-.0078.0118-.0117.0196-.0195.0156-.039.0351-.0586.0508-.0039.0039-.0039.0117-.0117.0156-.0156.0195-.039.0351-.0547.0508-.0078.0078-.0078.0117-.0117.0195-.0156.0156-.039.0312-.0586.0508-.0039.0039-.0039.0117-.0117.0156-.0156.0156-.039.0352-.0547.0508-.0078.0078-.0078.0117-.0117.0195-.0156.0156-.039.0313-.0586.0508-.004.0039-.004.0117-.0078.0156a.7835.7835 0 0 0-.0586.0508c-.004.0078-.004.0117-.0117.0156-.0157.0196-.0391.0352-.0547.0547-.0078.004-.0078.0078-.0117.0156-.0196.0157-.0391.0352-.0586.0508-.004.004-.004.0117-.0118.0156-.0156.0196-.039.0352-.0546.0508-.0079.0078-.0079.0117-.0118.0196a.679.679 0 0 0-.0586.0507c-.0039.004-.0039.0117-.0117.0157-.0156.0195-.039.0351-.0547.0507-.0078.0078-.0078.0118-.0117.0196-.0156.0156-.039.0312-.0586.0508-.0039.0039-.0039.0117-.0078.0156a.7832.7832 0 0 0-.0586.0508c-.0039.0078-.0039.0117-.0117.0156-.0156.0195-.039.0351-.0547.0547-.0078.0039-.0078.0078-.0117.0156a.783.783 0 0 0-.0586.0508c-.004.0039-.004.0117-.0117.0156-.0156.0195-.039.0352-.0547.0508-.0078.0078-.0078.0117-.0117.0195-.0196.0156-.039.0313-.0586.0508-.004.0039-.004.0117-.0117.0156-.0157.0196-.0391.0352-.0547.0508-.0078.0078-.0078.0117-.0117.0195-.0157.0157-.0391.0313-.0586.0508-.004.004-.004.0117-.0118.0156-.0156.0157-.039.0352-.0546.0508-.336.3867-.4844.8985-.4024 1.4024 1.6524 10.0351 2.0703 15.703.1875 22.7812-.2734 1.0274-.6133 2.1172-1.0898 3.1211-.4375.1367-.8243.1367-1.1602-.0117-2.0703-.918-3.4531-6.2656-3.5039-9.539-.086-6.0235-.0195-13.1212 1.129-20.1212.0429-.2812.0116-.5664-.0821-.832 1.7226-2.8438 2.918-5.996 3.4297-9.2813C176.3633 14.875 162.6953.2266 145.9492 1.5313c-8.0547.625-15.7539 4.9218-20.5156 11.453-7.3516 10.0704-6.8125 23.3829 1.3516 32.3165-5.3868.711-10.5118 3.371-15.3243 7.9844l-.0625.0625c-.0078 0-.0078.0078-.0117.0078l-.0625.0625c-.0078 0-.0078.0039-.0117.0039l-.0625.0625c-.004 0-.004.0078-.0117.0078-.0235.0195-.039.039-.0625.0625-.004 0-.004.0039-.0117.0039l-.0625.0625c-.004 0-.004.0039-.0118.0039-.0234.0234-.039.043-.0625.0625-.0039 0-.0039.0078-.0117.0078-.0195.0234-.039.039-.0625.0625-.0039 0-.0039.004-.0117.004-.0195.0234-.039.039-.0586.0624-.0078.0078-.0078.0078-.0117.0078-.0234.0235-.043.039-.0625.0625l-.0078.004-.0625.0624c-.004.0078-.004.0078-.0117.0078-.0235.0196-.0391.0391-.0625.0626l-.004.0039-.0624.0625c-.0079.0039-.0079.0039-.0118.0039-.0234.0234-.039.043-.0625.0625l-.0039.0078c-.0234.0234-.043.039-.0625.0625-.0078.0039-.0078.0039-.0117.0039l-.0625.0625-.0078.0078-.0625.0625c-.004 0-.004.0039-.0117.0039-.0195.0234-.039.039-.0625.0625-.004 0-.004.0078-.0117.0078l-.0625.0625c-.004 0-.004.004-.0079.004-.0234.0234-.043.039-.0624.0624-.0079 0-.0079.0078-.0118.0078a.4725.4725 0 0 0-.0625.0625c-.0078 0-.0078.004-.0117.004l-.0625.0624c-.0078 0-.0078.004-.0117.004-.0234.0234-.039.043-.0625.0624-.0078 0-.0078.0079-.0117.0079l-.0625.0625c-.004.0039-.004.0039-.0117.0039l-.0625.0625-.004.0078c-.0234.0234-.043.039-.0624.0625-.0079.0039-.0079.0039-.0118.0039l-.0625.0625-.0078.0078-.0625.0625c-.0039.0039-.0039.0039-.0117.0039-.0195.0234-.039.039-.0625.0625l-.004.004c-.0233.0233-.039.0429-.0624.0624-.004.0078-.004.0078-.0117.0078l-.0625.0625-.004.004-.0624.0624c-.0078 0-.0078.0078-.0118.0078l-.0624.0625c-.0079 0-.0079.004-.0118.004l-.0625.0624c-.0078 0-.0078.0079-.0117.0079-.0234.0195-.039.039-.0625.0625-.0039 0-.0039.0039-.0117.0039l-.0625.0625c-.004 0-.004.0078-.0117.0078-.0235.0195-.039.039-.0625.0586-.004 0-.004.0078-.0117.0078-.0196.0234-.0391.039-.0625.0625-.004 0-.004.0039-.0118.0039-.0195.0234-.039.043-.0586.0625-.0078.0078-.0078.0078-.0117.0078-.0234.0234-.043.039-.0625.0625l-.0078.004-.0625.0624c-.0039.0078-.0039.0078-.0117.0078-.0234.0196-.039.039-.0625.0625l-.004.004-.0624.0624c-.0078.0078-.0078.0078-.0117.0078-.0235.0196-.039.0391-.0625.0625l-.004.004c-.0234.0234-.043.039-.0624.0624-.0079.004-.0079.004-.0118.004l-.0625.0624-.0078.0079-.0625.0625c-.0039 0-.0039.0039-.0117.0039l-.0625.0625c-.0039 0-.0039.0078-.0117.0078-.0195.0234-.039.039-.0625.0625-.004 0-.004.0039-.0078.0039-.0235.0234-.043.039-.0625.0625-.0078 0-.0078.0078-.0117.0078a.4725.4725 0 0 0-.0625.0625c-.0079 0-.0079.004-.0118.004l-.0625.0624c-.0078 0-.0078.004-.0117.004-4.5742 4.3944-7.746 10.3593-9.1133 16.91-2.0117-4.121-4.9296-7.8632-8.6132-10.8202-2.4688-1.9844-5.1641-3.6641-8.0118-4.9922-.0625-.0274-.1289-.0586-.1914-.086 8.8399 1.4024 18.297-1.828 24.4805-8.3203 9.6367-10.1054 9.1719-25.3398-.3828-35.336-5.586-5.8398-13.7813-9.078-21.8516-8.6366-16.7695.918-28.3828 17.246-23.5312 33.7187 2.0547 6.961 7.2304 12.8438 13.707 16.1133-4.8203-.8867-9.3633-.3594-13.5937 1.6094-3.2578 1.5156-5.9922 3.3476-8.1836 5.4726l-.0664.0664-.0703.0703-.0665.0665-.0664.0664-.0703.0703-.0664.0664-.0703.0703-.0664.0664-.0703.0703-.0664.0664-.0703.0703a4408.8901 4408.8901 0 0 1-.1328.1328l-.0704.0703-.0664.0665-.0703.0703-.0664.0664-.0703.0703-.0664.0664-.0664.0664-.0703.0703c-.0235.0234-.0469.043-.0664.0664l-.0703.0703-.0664.0664-.0704.0704-.0664.0664a1.098 1.098 0 0 1-.0703.0664c-.0195.0234-.043.0468-.0664.0703l-.0664.0664a4661.0711 4661.0711 0 0 1-.1367.1367l-.0703.0703-.0664.0664-.0703.0703-.0664.0664-.0665.0664-.0703.0704-.0664.0664-.0703.0703-.0664.0664-.0703.0703-.0664.0664-.0664.0664-.0703.0703-.0664.0664-.0703.0703-.0665.0664-.0703.0704-.0664.0664a1.0977 1.0977 0 0 1-.0703.0664C47.379 67.4297 46 69.2344 44.961 71.211c-.8632 1.6367-1.578 3.371-2.1523 5.168-.7461-3.9376-1.4922-9.2618-1.4961-9.3282a1.6842 1.6842 0 0 0-.7148-1.164 1.7004 1.7004 0 0 0-1.3399-.2696l-.2539.0586c-4.2305.9258-8.582 1.871-12.7383 3.2305-.9531-3.418-1.7656-6.8985-2.4453-10.3829 1.8633-.5195 4.0117-1.1093 6.0547-1.668 6.629-1.8046 14.1484-3.8515 18.8906-5.5156.3008-.1015.5508-.2851.7422-.5117.0234-.0234.0508-.043.0664-.0664.0235-.0234.0508-.0469.0703-.0703.0235-.0195.0508-.043.0664-.0664.0235-.0234.0508-.0469.0703-.0703.0196-.0195.0508-.043.0665-.0664.0234-.0235.0507-.0469.0703-.0664.0195-.0235.0508-.0469.0664-.0703.0234-.0235.0508-.043.0664-.0664.0234-.0235.0508-.047.0703-.0704.0234-.0234.0508-.043.0664-.0664.0234-.0234.0508-.0468.0703-.0703.0234-.0195.0508-.043.0664-.0664.0235-.0234.0508-.0469.0703-.0664.0196-.0234.0508-.0469.0664-.0703.0235-.0234.0508-.0469.0664-.0664.0235-.0234.0547-.0469.0704-.0703.0234-.0235.0507-.043.0664-.0664.0234-.0235.0507-.0469.0703-.0703.0234-.0196.0508-.043.0664-.0664.0234-.0235.0508-.047.0703-.0665.0195-.0234.0508-.0468.0664-.0703.0234-.0234.0508-.0468.0664-.0664.0234-.0234.0547-.0468.0703-.0703.0235-.0234.0508-.043.0664-.0664.0235-.0234.0508-.0469.0703-.0703.0235-.0195.0508-.043.0664-.0664.0235-.0234.0508-.0469.0704-.0703.0195-.0196.0507-.043.0664-.0664.0234-.0235.0507-.0469.0703-.0664.0195-.0235.0508-.047.0664-.0703.0234-.0235.0508-.043.0664-.0665.0234-.0234.0508-.0468.0703-.0703.0234-.0234.0508-.043.0664-.0664.0234-.0234.0508-.0468.0703-.0703.0235-.0195.0508-.043.0664-.0664.0235-.0234.0508-.0469.0703-.0664.0196-.0234.0508-.0469.0664-.0703.0235-.0234.0508-.0469.0665-.0664.0234-.0234.0546-.0469.0703-.0703.0234-.0235.0507-.043.0664-.0664.0234-.0235.0508-.047.0703-.0703.0234-.0196.0508-.043.0664-.0665.0234-.0234.0508-.0468.0703-.0664.0195-.0234.0508-.0468.0664-.0703.0234-.0234.0508-.0468.0664-.0664.0234-.0234.0547-.0468.0703-.0703.0235-.0234.0508-.043.0664-.0664.0235-.0234.0508-.0469.0703-.0703.0235-.0195.0508-.043.0665-.0664.0234-.0234.0507-.0469.0703-.0703.3632-.3828.543-.9219.4414-1.4727-.4883-2.5937-.9883-5.1015-1.4688-7.5273-.4844-2.4102-.9765-4.9024-1.461-7.4688-.1679-.9023-1.0194-1.5039-1.9296-1.3672-11.1719 1.6797-21.4531 4.1954-32.336 6.8516-3.203.7813-6.5117 1.586-9.8242 2.371-.289.25-.578.4259-.8007.668l-.0704.0704c-.0195.0234-.043.043-.0664.0664-.0234.0234-.0468.0469-.0664.0703-.0234.0234-.0468.043-.0703.0664-.0234.0234-.043.0469-.0664.0703-.0234.0195-.0469.043-.0703.0664-.0234.0235-.043.0469-.0664.0664l-.0703.0703a.5333.5333 0 0 1-.0664.0664c-.0235.0235-.0469.047-.0664.0704-.0235.0234-.047.043-.0703.0664-.0235.0234-.043.0468-.0664.0703-.0235.0195-.047.043-.0704.0664-.0234.0234-.043.0469-.0664.0703a1.0977 1.0977 0 0 0-.0703.0664.5331.5331 0 0 1-.0664.0664c-.0586.0508-.0781.0742-.1015.0977l-.0704.0703-.0664.0664-.0664.0664-.0703.0703c-.0234.0234-.0469.043-.0664.0664l-.0703.0703c-.0234.0196-.043.043-.0664.0664l-.0703.0703-.0664.0664c-.0235.0235-.047.047-.0703.0665a1.0975 1.0975 0 0 1-.0665.0703c-.0234.0234-.0468.043-.0664.0664l-.0703.0703-.0664.0664-.0703.0703c-.0234.0195-.043.043-.0664.0664a1.0977 1.0977 0 0 1-.0703.0664 1.098 1.098 0 0 1-.0664.0703 4408.89 4408.89 0 0 0-.0664.0664l-.0703.0703c-.0235.0235-.047.043-.0664.0665-.0235.0234-.047.0468-.0703.0703-.0235.0195-.043.043-.0665.0664l-.0703.0703a4.8047 4.8047 0 0 1-.1132.1172.5332.5332 0 0 1-.0665.0664l-.0703.0703a.5333.5333 0 0 1-.0664.0664c-.0234.0234-.0469.0469-.0664.0703-.0234.0234-.0469.043-.0703.0664-.0234.0234-.043.0469-.0664.0703-.0234.0196-.0469.043-.0703.0664-.0234.0235-.043.047-.0664.0664-.3906.375-.5977.9258-.504 1.4961 4.2891 27.125 9.0235 54.5664 14.0548 81.5664.0859.4454.3476.8438.7226 1.0977.2852.1953.6133.293.9531.293.1133 0 .2266-.0118.3399-.0352 4.336-.8867 14.7851-4.6875 15.5351-4.9844.2188-.086.4141-.2187.5704-.3789l.0703-.0703c.0234-.0195.043-.043.0664-.0664a1.0977 1.0977 0 0 1 .0703-.0664c.0234-.0234.043-.0469.0664-.0703a1.0977 1.0977 0 0 1 .0703-.0664 1.0983 1.0983 0 0 1 .0664-.0703c.0234-.0235.0469-.043.0664-.0664l.0703-.0704a.5332.5332 0 0 0 .0664-.0664c.0235-.0234.047-.0468.0703-.0703.0235-.0195.043-.043.0665-.0664.0234-.0234.0468-.0469.0703-.0664.0195-.0234.043-.0469.0664-.0703.0234-.0234.0468-.043.0703-.0664a1.0975 1.0975 0 0 1 .0664-.0703.5332.5332 0 0 0 .0664-.0664l.0703-.0703c.0234-.0196.043-.043.0664-.0664a1.0983 1.0983 0 0 1 .0703-.0664 1.0977 1.0977 0 0 1 .0664-.0704c.0235-.0234.047-.043.0703-.0664.0196-.0234.043-.0468.0665-.0703.0234-.0234.0468-.043.0664-.0664l.0703-.0703c.0234-.0195.043-.043.0664-.0664.0234-.0234.0469-.0469.0703-.0664.0234-.0234.043-.0469.0664-.0703.0234-.0235.0469-.0469.0703-.0664a1.0983 1.0983 0 0 1 .0664-.0703c.0235-.0235.0469-.043.0664-.0664l.0703-.0704a.5334.5334 0 0 0 .0664-.0664 1.0977 1.0977 0 0 1 .0704-.0664c.0234-.0234.043-.0468.0664-.0703a1.0983 1.0983 0 0 1 .0703-.0664c.0195-.0234.043-.0469.0664-.0703.0234-.0234.0469-.043.0703-.0664.0195-.0234.043-.0469.0664-.0703a.5332.5332 0 0 0 .0664-.0664l.0703-.0703c.0235-.0196.043-.043.0664-.0664a1.0977 1.0977 0 0 1 .0703-.0665 1.0975 1.0975 0 0 1 .0664-.0703c.0235-.0234.047-.043.0704-.0664a1.0983 1.0983 0 0 1 .0664-.0703c.0234-.0234.0468-.043.0664-.0664l.0703-.0703c.0234-.0195.043-.043.0664-.0664a1.0975 1.0975 0 0 1 .0703-.0664c.0234-.0234.043-.0469.0664-.0703.4531-.4024.6758-1.0313.5352-1.6524-1.9922-8.746-4.4805-17.3125-6.879-25.6015-.4335-1.4961-.8671-3.0078-1.3007-4.5118.4531-.082.9101-.1757 1.3554-.2617 2.4805-.4687 5.043-.957 7.5938-1.5703a1.6532 1.6532 0 0 0 .875-.5273 4661.1374 4661.1374 0 0 0 .2031-.2031l.0703-.0704.0664-.0664c.0235-.0234.047-.0468.0703-.0703.0196-.0234.043-.043.0665-.0664l.0703-.0703.0664-.0664.0664-.0664.0703-.0703c.0234-.0235.043-.0469.0664-.0664l.0703-.0703.0664-.0665.0703-.0703.0664-.0664c.0235-.0234.047-.0468.0664-.0664a4661.1374 4661.1374 0 0 0 .1368-.1367l.0703-.0703.0664-.0664.0703-.0703.0664-.0664.0703-.0703.0664-.0665.0664-.0664.0703-.0703.0664-.0664.0704-.0703c.0195-.0234.043-.043.0664-.0664l.0273-.0273c-.2031 1.5156-.3281 3.0586-.332 4.6171-.0235 6.0665 1.5156 11.5235 4.4531 15.7891 3.9688 5.7617 10.9727 9.8828 18.7344 11.0156a33.1121 33.1121 0 0 0 4.746.3399c5.7696 0 11.6602-1.4805 16.9923-4.3125 2.75-1.4649 5.0312-3.125 6.828-4.9688a1.0977 1.0977 0 0 1 .0665-.0703l.0664-.0664.0703-.0703c.0234-.0234.0469-.043.0664-.0664l.0703-.0703c.0235-.0195.043-.043.0664-.0664l.0703-.0703.0665-.0664.0664-.0665.0703-.0703c.0234-.0234.0468-.043.0664-.0664l.0703-.0703.0664-.0664.0703-.0703.0664-.0664a1.098 1.098 0 0 1 .0703-.0664c.0196-.0234.043-.0469.0664-.0703.0235-.0235.047-.043.0664-.0664l.0704-.0703.0664-.0665.0703-.0703c.0234-.0195.043-.043.0664-.0664a1.0977 1.0977 0 0 1 .0703-.0664 1.098 1.098 0 0 1 .0664-.0703l.0664-.0664.0703-.0703.0664-.0664.0703-.0703c.0235-.0196.043-.043.0664-.0664l.0704-.0703.0664-.0665.0664-.0664.0703-.0703c.0234-.0234.0469-.043.0664-.0664l.0703-.0703c.0234-.0195.043-.043.0664-.0664l.0703-.0703.0664-.0664a1.0977 1.0977 0 0 1 .0703-.0664 1.0977 1.0977 0 0 1 .0664-.0703c.0235-.0235.047-.043.0664-.0664l.0704-.0704.0664-.0664.0703-.0703.0664-.0664c.0234-.0234.0469-.0469.0703-.0664.0195-.0234.043-.0469.0664-.0703l.0664-.0664.0703-.0703.0664-.0664c1.0977-1.1172 2.0117-2.3008 2.7383-3.5469.9688-1.664 1.668-3.5703 2.0977-5.6875.8046 1.2813 1.7539 2.5078 2.8515 3.6602 1.2656 1.3437 2.7617 2.621 4.4414 3.793 5.4258 3.785 11.8282 5.7695 18.1328 5.7695 2.7344 0 5.4532-.375 8.0665-1.1407 4.578-1.3437 8.6835-3.8867 11.8984-7.2109l.0703-.0703c.0234-.0234.043-.0469.0664-.0664l.0703-.0703.0664-.0664.0703-.0704.0664-.0664.0665-.0664.0703-.0703c.0234-.0234.043-.0469.0664-.0664l.0703-.0703.0664-.0664.0703-.0703.0664-.0664a1.0977 1.0977 0 0 0 .0664-.0703 1.0975 1.0975 0 0 0 .0703-.0664l.0664-.0664.0703-.0704.0665-.0664.0703-.0703c.0195-.0234.043-.043.0664-.0664l.0703-.0703.0664-.0664.0664-.0664.0703-.0703.0664-.0664.0703-.0703c.0196-.0235.043-.043.0664-.0664l.0703-.0704.0665-.0664.0664-.0664.0703-.0703c.0234-.0234.043-.0469.0664-.0664l.0703-.0703.0664-.0664.0703-.0703.0664-.0664a1.0975 1.0975 0 0 0 .0664-.0703 1.0977 1.0977 0 0 0 .0703-.0664l.0664-.0665a2330.519 2330.519 0 0 1 .1368-.1367l.0703-.0703.0664-.0664c.0234-.0234.0469-.0469.0664-.0703.0234-.0195.0469-.043.0703-.0664l.0664-.0664.0703-.0703.0664-.0664.0703-.0703c.0196-.0235.043-.043.0664-.0665 2.707-2.7773 4.7774-6.1054 5.9922-9.7265 2.9063 2.7695 6.6406 4.6992 10.6485 5.2422.8359.1133 1.6757.1719 2.5156.1719 5.4062 0 10.789-2.3126 14.6797-6.1876a1.0975 1.0975 0 0 1 .0703-.0664c.0195-.0234.043-.0468.0664-.0703.0234-.0234.0469-.043.0703-.0664.0195-.0234.043-.0469.0664-.0703.0234-.0234.0469-.043.0664-.0664l.0703-.0703c.0235-.0195.043-.043.0664-.0664.0235-.0234.047-.0469.0703-.0664.0235-.0235.043-.0469.0665-.0703.0234-.0235.0468-.047.0703-.0664.0195-.0235.043-.047.0664-.0704.0234-.0234.0469-.043.0664-.0664l.0703-.0703c.0234-.0195.043-.043.0664-.0664l.0703-.0703c.0234-.0195.043-.043.0664-.0664.0235-.0234.0469-.0469.0703-.0664a1.0975 1.0975 0 0 1 .0664-.0703c.0235-.0234.047-.043.0664-.0664l.0704-.0703a.5331.5331 0 0 0 .0664-.0664l.0703-.0704c.0234-.0195.043-.043.0664-.0664.0234-.0234.0469-.0468.0703-.0664a1.0975 1.0975 0 0 1 .0664-.0703c.0234-.0234.0469-.043.0703-.0664.0195-.0234.043-.0469.0664-.0703.0235-.0234.0469-.043.0664-.0664l.0703-.0703c.0235-.0195.043-.043.0664-.0664.0235-.0235.047-.0469.0704-.0664.0234-.0235.043-.0469.0664-.0703a1.0986 1.0986 0 0 1 .0703-.0664c.0195-.0235.043-.047.0664-.0704.0234-.0234.0469-.043.0664-.0664l.0703-.0703c.0234-.0195.043-.043.0664-.0664.0234-.0234.0469-.0469.0703-.0664.0235-.0234.043-.0469.0664-.0703a1.0975 1.0975 0 0 1 .0703-.0664c.0196-.0234.043-.0469.0664-.0703.0235-.0235.047-.043.0665-.0664l.0703-.0703a.5331.5331 0 0 0 .0664-.0664l.0703-.0704c.0234-.0195.043-.043.0664-.0664.0234-.0234.0469-.0468.0703-.0664.0195-.0234.043-.0468.0664-.0703.0234-.0234.0469-.043.0664-.0664l.0703-.0703c1.3125-1.293 2.4531-2.7578 3.3711-4.375 2.1016-3.6875 2.961-7.7734 3.4727-10.9258.0742-.4414.1367-.8828.1992-1.3203.1914 2.4961.8906 4.961 2.1016 7.2852 1.6601 3.1953 4.4375 5.7148 7.125 8.1562 4.2578 3.8594 7.9414 7.1953 7.2187 12.539a9.9514 9.9514 0 0 1-.168.9415 2.9667 2.9667 0 0 0-.1992.0508c-6.0781 1.3437-12.4726-.9883-16.293-5.9414-.3125-.4063-.7851-.6485-1.293-.6641-.5-.0117-1 .1953-1.3359.5781a.0472.0472 0 0 1-.0273.0274c-.0117.0156-.0273.0234-.0469.039-.0039.0117-.0156.0235-.0273.0313-.0117.0156-.0274.0195-.0469.039-.0039.0118-.0156.0196-.0273.0274-.0118.0156-.0274.0234-.047.039a.0472.0472 0 0 1-.0273.0274c-.0117.0195-.0273.0234-.043.043-.0077.0078-.0195.0195-.0312.0273-.0117.0156-.0273.0234-.043.039-.0078.0118-.0195.0235-.0312.0274-.0117.0195-.0273.0234-.043.039-.0078.0118-.0195.0235-.0273.0313-.0117.0156-.0313.0235-.0469.039-.0078.0118-.0156.0235-.0273.0274-.0117.0156-.0313.0235-.0469.039-.004.0118-.0156.0235-.0273.0313-.0118.0157-.0313.0196-.047.0391a.0472.0472 0 0 1-.0273.0273c-.0117.0157-.0273.0235-.0468.0391a.0472.0472 0 0 1-.0274.0273c-.0117.0196-.0273.0235-.0469.043-.0039.0117-.0156.0195-.0273.0274-.0117.0156-.0273.0234-.0469.039a.0472.0472 0 0 1-.0273.0274c-.0117.0195-.0274.0234-.043.039a.1189.1189 0 0 1-.0312.0313c-.0118.0156-.0274.0234-.043.039-.0078.0118-.0195.0235-.0313.0274-.0078.0195-.0273.0234-.043.039a.2233.2233 0 0 1-.0273.0313c-.0117.0156-.0312.0195-.0468.039-.0079.0118-.0157.0235-.0274.0274-.0117.0156-.0312.0234-.0469.039a.0472.0472 0 0 1-.0273.0274c-.0117.0195-.0274.0234-.0469.043-.0039.0117-.0156.0195-.0273.0273-.0117.0156-.0274.0235-.0469.039a.0472.0472 0 0 1-.0273.0274c-.0118.0196-.0274.0235-.047.043a.0903.0903 0 0 1-.0273.0273c-.0117.0157-.0273.0235-.043.0391-.0077.0117-.0195.0234-.0312.0273-.0117.0196-.0273.0235-.043.0391a.1189.1189 0 0 1-.0312.0313c-.0117.0156-.0273.0195-.043.039-.0078.0117-.0195.0235-.0312.0274-.0078.0156-.0274.0234-.043.039-.0078.0118-.0156.0235-.0273.0313-.0118.0156-.0313.0195-.047.039a.0472.0472 0 0 1-.0273.0274c-.0117.0156-.0312.0234-.0468.039a.0472.0472 0 0 1-.0274.0274c-.0117.0195-.0273.0234-.0468.043a.0902.0902 0 0 1-.0274.0273c-.0117.0156-.0273.0234-.0469.039a.0472.0472 0 0 1-.0273.0274c-.0117.0195-.0274.0234-.0469.039-.0039.0118-.0156.0235-.0273.0313-.0117.0156-.0274.0235-.043.039-.0078.0118-.0195.0235-.0312.0274-.0118.0196-.0274.0235-.043.039a.119.119 0 0 1-.0313.0313c-.0078.0157-.0273.0196-.043.0391a.0902.0902 0 0 1-.0273.0273c-.0117.0157-.0312.0235-.0469.0391-.0078.0117-.0156.0234-.0273.0274-.0117.0195-.0312.0234-.0469.043-.0039.0116-.0156.0195-.0273.0273-.0117.0156-.0274.0234-.0469.039a.0472.0472 0 0 1-.0273.0274c-.0118.0195-.0274.0234-.047.043a.0903.0903 0 0 1-.0273.0273c-.0117.0156-.0273.0234-.0468.039a.0472.0472 0 0 1-.0274.0274c-.0117.0195-.0273.0234-.0468.039-.004.0118-.0157.0235-.0274.0313-.0117.0156-.0273.0195-.043.039-.0078.0118-.0195.0235-.0312.0274-.0117.0156-.0274.0234-.043.039a.1189.1189 0 0 1-.0312.0313c-.0078.0156-.0274.0196-.043.039a.0902.0902 0 0 1-.0273.0274c-.0118.0157-.0313.0235-.047.039a.0472.0472 0 0 1-.0273.0274c-.0117.0196-.0312.0235-.0468.043a.0902.0902 0 0 1-.0274.0273c-.0117.0157-.0273.0235-.0469.0391a.0472.0472 0 0 1-.0273.0274c-.0117.0195-.0273.0234-.0469.039-.0039.0117-.0156.0235-.0273.0313-.0117.0156-.0274.0234-.0469.039a.0472.0472 0 0 1-.0273.0274c-.0118.0195-.0274.0234-.043.039a.1189.1189 0 0 1-.0313.0313c-.0117.0156-.0273.0195-.043.039-.0077.0118-.0195.0235-.0312.0274-.0117.0156-.0273.0234-.043.039a.0902.0902 0 0 1-.0273.0274c-.0117.0195-.0312.0234-.0469.043-.0117.0117-.0156.0195-.0273.0273-.0117.0156-.0313.0234-.0469.039-2.9804 3.3946-8.8086 11.9766-9.0586 12.34-.4023.5898-.3906 1.371.0274 1.9491 4.2695 5.9102 12.461 9.7852 21.9023 10.375a37.8755 37.8755 0 0 0 2.3828.0743c7.6407 0 14.3086-2.3438 18.1446-6.457l.0703-.0704c.0234-.0195.043-.043.0664-.0664.0234-.0234.0469-.0469.0703-.0664a1.0975 1.0975 0 0 1 .0664-.0703l.0664-.0664.0703-.0703.0664-.0664.0703-.0704c.0235-.0195.043-.043.0664-.0664l.0704-.0703.0664-.0664.0664-.0664.0703-.0703c.0234-.0234.0469-.043.0664-.0664l.0703-.0703c.0234-.0195.043-.043.0664-.0664l.0703-.0703.0664-.0664a1.098 1.098 0 0 1 .0703-.0664 1.0977 1.0977 0 0 1 .0664-.0704c.0235-.0234.047-.043.0665-.0664l.0703-.0703.0664-.0664.0703-.0703c.0234-.0195.043-.043.0664-.0664a1.0975 1.0975 0 0 1 .0703-.0664c.0195-.0234.043-.0469.0664-.0703l.0664-.0664.0703-.0703.0664-.0664.0703-.0704c.0235-.0195.043-.043.0665-.0664.0234-.0234.0468-.0468.0703-.0664a1.098 1.098 0 0 1 .0664-.0703l.0664-.0664.0703-.0703c.0234-.0234.0469-.043.0664-.0664l.0703-.0703c.0234-.0195.043-.043.0664-.0664l.0703-.0703.0664-.0664c.0235-.0235.047-.047.0703-.0665a1.0975 1.0975 0 0 1 .0665-.0703c.0234-.0234.0468-.043.0664-.0664l.0703-.0703.0664-.0664.0703-.0703.0664-.0664a1.0977 1.0977 0 0 1 .0703-.0664 1.098 1.098 0 0 1 .0664-.0703c.0234-.0235.0469-.043.0664-.0664 7.4531-7.9883 9.457-17.457 5.5078-25.9766-1.336-2.8789-3.246-5.5352-5.6875-7.8828-1.2617-1.2227-2.6445-2.2383-3.9843-3.2266-1.3946-1.0312-2.7188-2-3.8711-3.164-1.6407-1.6485-3.5196-4.082-3.1875-6.3477.7656-.75.8593-1.1016.9843-1.457ZM80.3633 93.1328c-1.3399.8242-2.8438 1.3945-4.3906 1.6758-7.8399 1.4062-16.1133-4.6484-16.2149-12.918-.0273-2.371.582-4.7969 1.7578-6.8203.6992-.3828 1.4532-.6758 2.2696-.8594 5.4843-1.1796 10.5195.7227 14.5351 4.5938 3.8945 3.75 4.8984 9.4922 2.043 14.3281Zm70.5351-39.125a235.3641 235.3641 0 0 0-.1015 1.6563c-.0117.1406-.0196.2851-.0313.4257-.4883-.668-1.0078-1.3007-1.5547-1.914a27.1086 27.1086 0 0 0 1.6875-.168Zm-8.2422 25.211c-.4648.0312-.8828.2539-1.1796.6015-.0235.0195-.0508.043-.0664.0664-.0235.0235-.0508.0469-.0704.0664-.0234.0235-.0507.0469-.0664.0703-.0234.0235-.0507.047-.0703.0664-.0234.0235-.0508.047-.0664.0704-.0234.0234-.0508.043-.0703.0664-.0195.0234-.0508.0468-.0664.0703-.0234.0195-.0508.043-.0664.0664-.0234.0234-.0547.0469-.0703.0664-.0235.0234-.0508.0469-.0664.0703-.0235.0234-.0508.0469-.0703.0664-.0235.0234-.0508.0469-.0664.0703-.0235.0235-.0508.043-.0704.0664-.0195.0235-.0507.0469-.0664.0703-.0234.0196-.0507.043-.0664.0664-.0234.0235-.0547.047-.0703.0704-.0234.0195-.0508.043-.0664.0664-.0234.0234-.0508.0468-.0703.0664-.0234.0234-.0508.0468-.0664.0703-.0234.0234-.0508.043-.0703.0664-.0196.0234-.0508.0469-.0664.0703-.0235.0234-.0508.043-.0703.0664-.0196.0234-.0508.0469-.0664.0703-.0235.0195-.0508.043-.0665.0664-.0234.0235-.0507.0469-.0703.0664-.0234.0235-.0507.047-.0664.0703-.0234.0235-.0507.043-.0703.0665-.0195.0234-.0508.0468-.0664.0703-.0234.0234-.0508.043-.0703.0664-.0195.0234-.0508.0468-.0664.0703-.0234.0195-.0508.043-.0664.0664-.0234.0234-.0508.0469-.0703.0664-.0235.0234-.0508.0469-.0664.0703-.0235.0234-.0508.0469-.0703.0664-.0235.0234-.0508.0469-.0665.0703-.0234.0235-.0507.043-.0703.0664-.0195.0235-.0507.047-.0664.0703-.0234.0196-.0507.043-.0664.0665-.0234.0234-.0547.0468-.0703.0703-.0234.0195-.0508.043-.0664.0664-.0234.0234-.0508.0468-.0703.0664-.0234.0234-.0508.0469-.0664.0703-.0234.0234-.0508.043-.0703.0664-.0196.0234-.0508.0469-.0664.0703-.0235.0195-.0508.043-.0664.0664-.0235.0234-.0547.0469-.0703.0703-.0235.0196-.0508.043-.0665.0664-.0234.0235-.0507.047-.0703.0664-.0234.0235-.0507.047-.0664.0704-.0234.0234-.0508.043-.0703.0664-.1172.125-.2266.2695-.3047.4257-.2148.4493-.4765.879-.7656 1.3047-2.4648 1.75-5.539 2.957-8.621 3.2383-2.418.2188-6.8907.0156-9.6876-3.8047-3.5898-4.9023-2.4062-12.8867.914-17.6719 3.5626-2.4648 7.2227-2.328 9.3516-1.9257 4.375.828 7.422 3.5351 8.172 5.7734a1.7094 1.7094 0 0 0 1.3554 1.1406c.5625.086 1.125-.1133 1.5117-.5273.0234-.0235.043-.0469.0664-.0703a1.0975 1.0975 0 0 0 .0703-.0664c.0234-.0235.043-.047.0664-.0704.0235-.0195.0469-.043.0703-.0664a.5331.5331 0 0 1 .0664-.0664 1.0986 1.0986 0 0 0 .0664-.0703c.0235-.0234.047-.043.0704-.0664.0234-.0234.0468-.0469.0664-.0703.0234-.0234.0468-.043.0703-.0664.0234-.0234.043-.0469.0664-.0703.0234-.0195.0469-.043.0703-.0664a.5332.5332 0 0 1 .0664-.0664l.0703-.0703c.0195-.0235.043-.043.0664-.0664.0235-.0235.0469-.047.0664-.0704.0235-.0234.0469-.043.0703-.0664.0235-.0234.043-.0468.0664-.0703.0235-.0195.047-.043.0704-.0664a.5333.5333 0 0 1 .0664-.0664l.0703-.0703a.5332.5332 0 0 1 .0664-.0664c.0234-.0234.0469-.0469.0664-.0703.0234-.0235.0469-.043.0703-.0664.0234-.0235.043-.0469.0664-.0703.0234-.0196.0469-.043.0703-.0664.0235-.0235.043-.047.0664-.0704.0235-.0195.0469-.043.0703-.0664a.5331.5331 0 0 1 .0664-.0664c.0235-.0234.047-.0468.0665-.0703.0234-.0234.0468-.043.0703-.0664.0234-.0234.0468-.0469.0664-.0703.0234-.0234.0468-.043.0703-.0664.0234-.0234.043-.0469.0664-.0703.0234-.0195.0469-.043.0703-.0664a.5332.5332 0 0 1 .0664-.0664c.0234-.0235.0469-.047.0664-.0703.0234-.0235.0469-.047.0703-.0665.0235-.0234.0469-.0468.0664-.0703.0235-.0234.047-.043.0703-.0664.0235-.0234.043-.0468.0665-.0703a1.0975 1.0975 0 0 0 .0703-.0664.5333.5333 0 0 1 .0664-.0664l.0703-.0703a.5331.5331 0 0 1 .0664-.0664 1.0986 1.0986 0 0 0 .0664-.0703c.0234-.0235.0469-.043.0703-.0664.0234-.0235.043-.047.0664-.0703a1.0975 1.0975 0 0 0 .0703-.0665c.0235-.0234.043-.0468.0664-.0703.0235-.0195.047-.043.0703-.0664.0704-.0664.1407-.1406.1954-.2226l.0351-.043c1.6406-2.2539 3.211-4.4102 5.0078-6.3789a.0686.0686 0 0 1 .0156-.0195c.0118-.0117.0157-.0196.0274-.0313.0117-.0117.0273-.0234.039-.0351.0118-.0118.0196-.0235.0313-.0352.0117-.0117.0274-.0234.039-.0352.0118-.0078.0235-.0195.0352-.0312a.1171.1171 0 0 1 .039-.0352c.0118-.0117.0157-.0234.0274-.0351.0118-.0117.0274-.0195.039-.0313l.0352-.0351a.3523.3523 0 0 1 .0391-.0352c.0117-.0117.0156-.0234.0274-.0351.0117-.0078.0312-.0196.039-.0313l.0352-.0351c.0117-.0118.0234-.0235.039-.0352.0118-.0117.0196-.0234.0313-.0312.0117-.0118.0273-.0235.039-.0352l.0352-.0352a.1171.1171 0 0 1 .039-.0351c.0118-.0078.0157-.0195.0274-.0313.0117-.0117.0274-.0234.039-.0351.0118-.0117.0157-.0235.0274-.0352.0117-.0117.0313-.0234.043-.0312a.2146.2146 0 0 1 .0273-.0352c.0118-.0117.0274-.0234.039-.0351.0118-.0118.0157-.0235.0274-.0352.0118-.0078.0313-.0195.0391-.0312.0117-.0118.0195-.0235.0313-.0352.0117-.0117.0273-.0234.039-.0352.0117-.0117.0156-.0234.0274-.0312.0117-.0117.0273-.0234.039-.0352.0117-.0117.0196-.0234.0313-.0351.0078-.0117.0273-.0235.039-.0352.0118-.0117.0157-.0195.0274-.0312.0117-.0117.0273-.0235.039-.0352l.0352-.0351c.0117-.0118.0234-.0235.039-.0313.0118-.0117.0157-.0234.0274-.0351.0117-.0118.0313-.0235.039-.0352l.0352-.0352c.0117-.0117.0235-.0195.039-.0312.0118-.0117.0196-.0234.0313-.0352.0118-.0117.0274-.0234.039-.0351a.2527.2527 0 0 1 .0352-.0313.1171.1171 0 0 1 .0391-.0351c.0117-.0117.0156-.0235.0274-.0352.0117-.0117.0273-.0234.039-.0351.0117-.0118.0235-.0196.0352-.0313.0117-.0117.0234-.0234.039-.0351.0118-.0118.0157-.0235.0274-.0352.0117-.0117.0312-.0234.039-.0352.0118-.0078.0196-.0195.0313-.0312.0117-.0117.0273-.0234.039-.0352.0118-.0117.0157-.0234.0274-.0351.0117-.0117.0273-.0196.039-.0313.0118-.0117.0196-.0234.0313-.0351-.1562 2.5078-.293 5.0508-.3633 7.6093-.0586 2-.121 4.0704.1953 6.172.3125 2.082 1.0274 4.0898 2.0547 5.9413-1.961-.1328-4.9922-.0625-9.8007.2618Zm0 0"/></g><path fill="#fdd700" d="M136.625 46.1758c-1.7773-.5117-3.5234-.8242-5.25-.9492-9.1133-7.707-10.3242-20.7032-3.3047-30.3243 4.1719-5.7148 10.9102-9.4687 17.9649-10.0195 14.6523-1.1406 26.6171 11.6797 24.3125 26.5313-.4649 3-1.582 5.875-3.1954 8.4492-3.6445-.3516-7.2968-.1524-10.8906.6094-.3203.0664-.6015.2265-.8242.4414-.0234.0234-.043.0468-.0664.0664l-.0703.0703-.0664.0664-.0703.0703c-.0196.0234-.043.043-.0664.0664-.0235.0234-.047.0469-.0665.0703-.0234.0196-.0468.043-.0703.0664l-.0664.0664c-.0234.0235-.0468.047-.0703.0703-.0234.0235-.043.047-.0664.0665l-.0703.0703c-.0195.0234-.043.043-.0664.0664a1.0977 1.0977 0 0 0-.0664.0703 1.0975 1.0975 0 0 0-.0703.0664c-.0235.0234-.0469.0469-.0664.0703-.0235.0195-.047.043-.0703.0664-.0235.0234-.043.0469-.0665.0664l-.0703.0703c-.0195.0235-.043.043-.0664.0664-.0234.0235-.0468.047-.0703.0703-.0195.0235-.043.043-.0664.0665-.0234.0234-.0469.0468-.0664.0703a1.098 1.098 0 0 0-.0703.0664c-.0234.0234-.043.0468-.0664.0664l-.0703.0703c-.0235.0234-.043.0469-.0664.0664l-.0703.0703c-.0196.0234-.043.043-.0665.0664a1.098 1.098 0 0 0-.0664.0703c-.0234.0196-.0468.043-.0703.0664-.0234.0235-.043.047-.0664.0664l-.0703.0703c-.0234.0235-.043.047-.0664.0665l-.0703.0703c-.0195.0234-.043.043-.0664.0664a1.0975 1.0975 0 0 0-.0664.0703 1.0977 1.0977 0 0 0-.0703.0664 1.098 1.098 0 0 0-.0664.0703c-.0235.0195-.047.043-.0703.0664-.0235.0234-.043.0469-.0665.0664l-.0703.0703c-.0195.0235-.043.043-.0664.0664l-.0703.0703c-.0195.0235-.043.043-.0664.0665-.0234.0234-.0469.0468-.0664.0703-.0234.0195-.0469.043-.0703.0664-.0234.0234-.043.0468-.0664.0664l-.0703.0703a.5332.5332 0 0 1-.0664.0664l-.0703.0703a1.6935 1.6935 0 0 0-.5938 1.2344c-.0586 1.6719-.1406 3.3437-.2344 5.0078a24.364 24.364 0 0 1-5.3047.254c-2.8086-2.047-5.9218-3.6759-9.2734-4.6407Zm-32.7344 1.2304c8.4336-8.8476 8.0235-22.1796-.336-30.9296-4.8866-5.1133-12.0663-7.9532-19.125-7.5586C69.75 9.7227 59.582 24.0117 63.832 38.4336c2.3399 7.9336 9.3008 14.2812 17.3828 16.0352 8.082 1.746 16.9649-1.0743 22.6758-7.0626ZM100 88.8868c-.2188 2.7578-.879 5.5195-2.3047 7.957-1.9492 3.3438-5.2383 5.9024-8.8164 7.8047-6.2031 3.297-13.6094 4.8243-20.6953 3.7852-7.082-1.039-13.754-4.75-17.5742-10.3008-3.0157-4.371-4.1719-9.6484-4.1563-14.8164.0196-5.0547 1.1758-10.1484 3.543-14.6289 2.457-4.6523 6.707-7.8633 11.4414-10.0664 6.6406-3.086 13.4258-2.0938 19.9219.9375a37.6342 37.6342 0 0 1 7.664 4.7773C96.5547 70.3906 100.7383 79.75 100 88.8867ZM82.0625 75.0742c-4.0195-3.871-9.0586-5.7734-14.5352-4.5898-5.039 1.082-7.832 6.3828-7.7695 11.4101.1055 8.2696 8.375 14.3243 16.2149 12.918 3.2968-.5898 6.4062-2.5078 8.1132-5.3906 2.875-4.8399 1.875-10.6016-2.0234-14.3477Zm111.418-32.918c-4.4766-.8046-8.9375-.0351-13.4844-.1992 1.5664 9.5196 2.1914 15.836.1523 23.4961-.6289 2.3672-1.5273 4.793-3.3672 6.4024-6.6328 5.8242-9.2421-5.1602-9.3046-9.6758-.0977-6.8203.0507-13.6875 1.1523-20.4219-3.9922-.5781-8.0781-.4453-12.0234.3867-.2461 7.129-.918 14.0078-1.1211 21.1407-.0586 1.9609-.1133 3.9335.1758 5.871 1.0937 7.3594 7.5664 13.5 14.9375 14.504 7.371 1.0039 15.1015-3.0079 18.7851-9.4766 1.7969-3.1602 2.6836-6.7656 3.2734-10.3516.75-4.5976 1.0508-9.2734.879-13.9297Zm0 0"/><path fill="#3cb4d9" d="M155.125 81.1133c-1.957 8.4375-8.961 15.3515-17.2734 17.793-8.3164 2.4374-17.6407.5585-24.7461-4.3985-1.504-1.0508-2.918-2.2305-4.1758-3.5664-3.8984-4.1367-5.914-9.164-5.6758-14.836.336-8 3.539-15.9765 9.3164-21.5195 6.6094-6.3437 14.4297-9.4023 23.582-6.7695 5.4766 1.5781 10.3711 5.1016 13.6055 9.789-2.957 2.6446-5.2226 5.7657-7.539 8.9493-2.0586-6.1524-15.0625-11.5899-23.2735-1.8086-4.3828 5.2187-5.9883 14.918-1.7266 20.746 6.2735 8.5704 21.4336 3.9337 25.5508-4.5741 2.6797-.1797 11.289-.754 12.3555.1953ZM36.0781 117.246c-2.6758-11.7422-6.1523-22.8516-9.418-34.4414 5.0196-1.2031 10-1.9063 15.0274-3.1055-.9219-3.6367-2.1016-12.1523-2.1016-12.1523-4.8242 1.0586-9.8554 2.1406-14.5 3.8203-1.539-5.2383-2.7578-10.5742-3.6562-15.957-.1133-.6758 20.9726-5.711 30.3008-8.9727-.9649-5.164-1.961-9.832-2.9258-15-14.4727 2.1797-27.7813 5.8398-42.0274 9.1914 4.3086 27.2383 8.9961 54.4102 14.0508 81.5156 4.0782-.8203 14.2188-4.4882 15.25-4.8984ZM237.2187 46.168c-7.3945-4.414-15.2578-8.4844-24.1132-5.8516-10.6368 3.164-16.6875 15.1758-11.379 25.3867 4.0352 7.7656 15.8673 11.711 14.5235 21.7031-.4375 3.2579-2.0156 5.2852-5.2617 6-6.7188 1.4844-13.8008-1.1132-18.0078-6.5624-2.9453 3.3554-8.9258 12.168-8.9258 12.168 8.246 11.41 31.2969 12.9452 39.8047 3.828 6.4101-6.8671 9.1094-15.6835 5.207-24.0976-1.2851-2.7695-3.1328-5.2617-5.3242-7.379-2.4531-2.3671-5.4727-3.996-7.879-6.414-1.9765-1.9805-4.1015-4.8281-3.664-7.793.164-1.1328.6328-2.203 1.211-3.1874 1.914-3.2579 6.1875-3.5899 9.6171-2.8165 1.7032.3868 3.3477 1.0938 4.7735 2.1094.4804.3477 3.246 3.6446 3.246 3.6446 0-.004 6.172-10.7383 6.172-10.7383Zm0 0"/><path fill="#3858a7" d="M67.164 68.8203c-6.078 1.3086-9.1835 7.582-9.1132 13.0977.0547 4.2226 2.0469 8.2695 5.4765 11.0976 2.8985 2.3867 6.5586 3.6992 10.1758 3.6992.8594 0 1.7227-.0742 2.5703-.2265 3.9336-.7031 7.3985-3.0274 9.2774-6.1992 3.2148-5.4141 2.2812-12.0196-2.3164-16.4414-4.6406-4.4766-10.3516-6.2657-16.0703-5.0274Zm15.465 19.7344c-1.3868 2.332-3.9845 4.043-6.9532 4.5781-3.414.6133-7.1445-.414-9.9727-2.746-2.6875-2.2266-4.1992-5.2462-4.2383-8.5118-.0507-4.1328 2.1407-8.8047 6.4258-9.7305.9922-.2148 1.9531-.3125 2.8594-.3125 4.461 0 7.9023 2.3125 10.1367 4.461 3.4297 3.3086 4.125 8.2304 1.7422 12.2617Zm7.4687-25.539c-2.4688-1.9884-5.1641-3.668-8.0118-4.9962-7.7382-3.6133-14.9296-3.9258-21.3593-.9375-5.7305 2.668-9.8438 6.3047-12.2305 10.8203-2.4219 4.5899-3.7148 9.918-3.7383 15.4141-.0234 6.0664 1.5156 11.5195 4.4531 15.789 3.9688 5.7579 10.9727 9.879 18.7344 11.0157a33.1121 33.1121 0 0 0 4.7461.3398c5.7734 0 11.664-1.4804 16.9922-4.3125 4.3867-2.3359 7.5781-5.1718 9.4883-8.453 1.4101-2.4102 2.2578-5.336 2.5312-8.6759.7774-9.6601-3.6719-19.625-11.6054-26.0039Zm8.207 25.7343c-.2266 2.832-.9258 5.2617-2.0781 7.2383-1.5899 2.7187-4.3282 5.1289-8.1485 7.1562-6.1719 3.2813-13.1445 4.5586-19.6445 3.6094-6.836-1-12.9766-4.586-16.4219-9.5781-2.543-3.6914-3.8789-8.4805-3.8554-13.8438.0156-4.9492 1.1757-9.7343 3.3437-13.836 2.0273-3.8437 5.6133-6.9765 10.6563-9.3241 5.5585-2.582 11.6015-2.2813 18.4804.9336 2.6055 1.2148 5.0664 2.7539 7.3203 4.5664 7.0782 5.6797 11.039 14.5273 10.3477 23.0781Zm44.3516-9.5313c-.6055.0391-1.1524.4063-1.418.957-2.039 4.2071-7.4844 7.6173-12.957 8.1173-2.418.2187-6.8907.0156-9.6836-3.8047-3.8399-5.25-2.211-14.039 1.6523-18.6485 4.3086-5.1289 9.4844-5.0351 12.1875-4.5156 4.375.8281 7.4219 3.5352 8.1719 5.7696.2031.6015.7265 1.0468 1.3554 1.1406.629.0976 1.2618-.164 1.6329-.6797l.0351-.0508c2.293-3.1523 4.457-6.125 7.2578-8.6328.6446-.5742.7578-1.5313.2696-2.2344-3.4805-5.0547-8.6446-8.7656-14.5352-10.461-9.0625-2.6093-17.5547-.1952-25.2344 7.1798-5.8828 5.6523-9.4726 13.9218-9.8398 22.6758-.25 5.996 1.871 11.5585 6.1406 16.082 1.2695 1.3437 2.7656 2.621 4.4453 3.789 5.4258 3.7852 11.8242 5.7735 18.1328 5.7735 2.7344 0 5.4532-.375 8.0625-1.1406 9.1485-2.6875 16.3907-10.1563 18.4493-19.043.1445-.6055-.0586-1.2422-.5274-1.6563-.8516-.7539-2.5312-1.3671-13.5976-.6171Zm-5.2813 18.0508c-7.6406 2.2422-16.3516.6875-23.293-4.1601-1.4882-1.039-2.8047-2.1602-3.918-3.336-3.6757-3.8945-5.4296-8.4726-5.2148-13.5976.3281-7.8945 3.5352-15.3203 8.7969-20.3711 5.0586-4.8516 10.2969-7.25 15.8789-7.25 1.9727 0 3.9844.3008 6.0508.8906 4.5976 1.3203 8.832 4.1875 11.8125 7.9492-1.9024 1.875-3.5352 3.9336-5.0742 6.004-2.004-2.6094-5.4883-4.6993-9.3477-5.4297-5.8476-1.1133-11.4648.957-15.4258 5.6757-4.7773 5.6914-6.6406 16.2305-1.793 22.8477 2.8047 3.832 7.332 5.6758 12.7422 5.1836 6.3086-.5742 12.4102-4.2695 15.2383-9.129 5.2461-.332 7.8828-.3007 9.1797-.203-2.2422 6.9062-8.336 12.7851-15.6328 14.9257Zm-96.1016-29.953c-.0625-.4728-.3242-.8907-.7148-1.1642a1.7016 1.7016 0 0 0-1.3398-.2656l-.2618.0547c-4.2265.9258-8.5742 1.875-12.7343 3.2305-1.172-4.1953-2.1446-8.4805-2.9024-12.7656 1.918-.629 6.211-1.797 10.082-2.8516 6.629-1.8047 14.1407-3.8555 18.8868-5.5117.793-.2774 1.2656-1.0977 1.1132-1.918-.4843-2.5938-.9882-5.0977-1.4726-7.5195-.4805-2.414-.9766-4.9063-1.457-7.4805-.172-.9023-1.0235-1.504-1.9297-1.375-11.1797 1.6797-21.457 4.1953-32.3516 6.8555-3.1953.7851-6.5039 1.5898-9.8125 2.3672-.8672.203-1.4297 1.043-1.293 1.9257 4.293 27.1211 9.0235 54.5664 14.0586 81.5664.086.4454.3477.8438.7188 1.0977.2851.1953.6133.293.957.293.1133 0 .2266-.0118.3399-.0352 4.3398-.8867 14.7851-4.6875 15.5312-4.9844.7852-.3046 1.2266-1.1406 1.039-1.9609-1.9921-8.746-4.4765-17.3164-6.8788-25.6016-.6914-2.3906-1.3907-4.793-2.0743-7.2109 1.9102-.418 3.8282-.7813 5.7032-1.1406 2.4804-.4688 5.039-.957 7.5937-1.5703a1.731 1.731 0 0 0 1.0586-.7735 1.6807 1.6807 0 0 0 .1953-1.2969c-.8789-3.5039-2.043-11.8789-2.0547-11.9648Zm-7.418 12.2655c-2.4804.4688-5.039.957-7.5937 1.5664-.4492.1055-.8398.3946-1.0742.793-.2305.3984-.293.879-.168 1.3203.8516 3.0156 1.711 5.9883 2.5703 8.957 2.3555 8.1329 4.5899 15.8399 6.4922 23.9493-2.6601.961-8.3086 2.9297-11.9062 3.8984C17.3633 94.1875 12.832 67.918 8.707 41.918c2.8086-.668 5.5977-1.3516 8.3047-2.0078 10.2774-2.5079 20.0156-4.8946 30.4258-6.543.3828 2.0195.7773 3.9844 1.1602 5.8945.3945 1.957.789 3.9688 1.1875 6.0274-4.6915 1.543-11.6133 3.4297-17.2735 4.9726-3.1406.8555-6.1094 1.664-8.2148 2.2813-3.414 1.0039-4.836 1.418-4.5469 3.1328.9023 5.4375 2.1523 10.875 3.7031 16.1562.129.4493.4414.8282.8633 1.039.418.215.9063.2462 1.3477.086 3.9726-1.4375 8.2773-2.4336 12.5-3.3672.328 2.2305.918 6.0352 1.4922 8.8165-1.9493.4374-3.8985.8124-5.8008 1.1757Zm157.0157-4.5586c2.0976-3.6875 2.961-7.7773 3.4726-10.9257.7657-4.6915 1.0704-9.4883.9024-14.2383l-.0703-7.7188c-.004-.8164-.5938-1.5156-1.4024-1.664-2.9882-.5391-5.9336-.4141-8.789-.3008-1.625.0703-3.3047.1367-4.9336.0742-.5078-.0156-1.004.1914-1.3399.5781a1.7432 1.7432 0 0 0-.4023 1.4024c1.6523 10.0351 2.0742 15.703.1875 22.7812-.5274 1.9805-1.2774 4.1875-2.8438 5.5625-1.2226 1.0781-2.2304 1.4531-2.9765 1.1172-2.0742-.918-3.457-6.2656-3.5078-9.539-.086-6.0235-.0196-13.1212 1.1289-20.1212.0742-.4492-.0352-.914-.3086-1.2812-.2696-.371-.6758-.6133-1.129-.6797-4.2109-.6133-8.457-.4805-12.6171.4024-.7656.1562-1.3203.8203-1.3477 1.6054-.121 3.3633-.336 6.7422-.5468 10.0117-.2305 3.625-.4688 7.3711-.5782 11.1407-.0586 1.996-.1172 4.0664.1993 6.168 1.1914 7.9726 8.2343 14.828 16.3906 15.9413.832.1133 1.6719.172 2.5117.172 7.2031 0 14.3437-4.0743 18-10.4884Zm-20.0352 6.9454c-6.7148-.9141-12.5078-6.5313-13.4843-13.0704-.2696-1.8046-.2149-3.7148-.1602-5.5742.1094-3.7031.3477-7.4219.5742-11.0195.1797-2.8555.3672-5.789.4922-8.75 2.789-.4727 5.6094-.582 8.4219-.3203-.9336 6.668-.9844 13.2851-.9063 18.961.0391 2.6523 1.1328 10.6523 5.5274 12.6054 1.4258.6367 3.7304.8594 6.6054-1.668 2.2657-1.9844 3.2696-4.914 3.8868-7.246 2.0507-7.7032 1.4648-14.2305.207-22.2071 1.0586-.0117 2.1055-.0586 3.1328-.0977 2.2969-.0898 4.4922-.1836 6.6602.0508l.0586 6.2774v.043c.164 4.5429-.125 9.1171-.8633 13.5937-.4727 2.8672-1.2422 6.5742-3.0742 9.7851-3.4141 5.9922-10.4336 9.547-17.0782 8.6368ZM214.875 54.828c1.4414-2.4492 4.961-2.6484 7.7695-2.0117 1.4922.332 2.918.957 4.1211 1.8047.3633.3281 1.8125 1.9922 2.9688 3.375.3047.3633.7539.586 1.2304.6094.4844.0156.9415-.1602 1.2774-.5.1601-.1602.1601-.1602 6.4531-11.086.4649-.8047.1914-1.832-.6016-2.3086-7.6914-4.5898-16-8.8437-25.4687-6.0234-5.8828 1.75-10.625 5.9766-13.0117 11.6016-2.2617 5.3398-2.0469 11.0976.6094 16.203 1.664 3.1954 4.4375 5.715 7.1289 8.1563 4.2539 3.8594 7.9375 7.1954 7.2187 12.5352-.3633 2.707-1.5117 4.0312-3.9453 4.5664-6.0781 1.336-12.4727-.9883-16.293-5.9453a1.7193 1.7193 0 0 0-1.293-.664 1.7126 1.7126 0 0 0-1.3359.582c-2.9804 3.3906-8.8086 11.9726-9.0586 12.3359-.4023.5898-.3906 1.375.0313 1.9531 4.2656 5.9063 12.457 9.7852 21.8984 10.375a37.9986 37.9986 0 0 0 2.3867.0742c7.6368 0 14.3047-2.3437 18.1407-6.4609 7.453-7.9844 9.457-17.457 5.5078-25.9766-1.336-2.875-3.254-5.5312-5.6875-7.8828-1.2617-1.2187-2.6446-2.2344-3.9805-3.2226-1.3945-1.0313-2.7148-2.004-3.8672-3.168-1.6406-1.6445-3.5195-4.0781-3.1914-6.3438.1133-.789.4375-1.6289.9922-2.578Zm-.2188 11.3242c1.3399 1.3438 2.8243 2.4415 4.2618 3.5079 1.3047.9648 2.5351 1.871 3.6367 2.9335 2.1328 2.0586 3.8047 4.3711 4.961 6.8672 3.3437 7.1954 1.5546 15.3008-4.9024 22.2188-3.4922 3.746-10.3242 5.7773-17.8281 5.3086-7.793-.4883-14.7891-3.539-18.625-8.043 1.3828-2.0078 4.5273-6.5312 6.8437-9.461 4.6875 4.879 11.6719 7.0587 18.3477 5.586 3.8125-.8476 6.0312-3.3437 6.582-7.4375.961-7.1172-3.961-11.5781-8.3008-15.5156-2.5781-2.3399-5.0195-4.5469-6.3984-7.2031-2.1758-4.1875-2.3555-8.9141-.4922-13.3008 1.957-4.6133 6.0117-8.2305 10.8437-9.668 7.629-2.2617 14.4688.8399 21.3203 4.832a4308.9665 4308.9665 0 0 0-4.1328 7.1797c-1.5273-1.7617-1.8632-1.9922-1.9922-2.082-1.578-1.125-3.4414-1.9492-5.3867-2.3867-3.9843-.8946-9.086-.414-11.453 3.6172-.7813 1.332-1.254 2.5742-1.4298 3.8086-.4297 2.9336.961 6.043 4.1446 9.2382Zm-81.9257-27.3671c-.4883-6-.7032-12.086-.6446-18.1055.004-.4688.3828-.8477.8555-.8438.4688.004.8438.3907.8438.8555-.0508 5.6719.1445 11.4102.5742 17.0664a294.6609 294.6609 0 0 0 2.043-.2383c2.0312-.2304 3.957-.4492 5.9648-.7812.461-.082.9023.2383.9766.7031.078.4648-.2383.9023-.7032.9766-2.0547.3398-4.086.5703-6.0508.793-.957.1093-1.9218.2226-2.9062.3398-.0313.0078-.0742.0078-.1055.0078-.1953 0-.3867-.0703-.539-.1953a.7994.7994 0 0 1-.3086-.5781Zm6.3437-5.2266c.2852.1016.5625.1484.836.1484 1.7773 0 3.3085-1.9648 4.1484-3.8476.5156-1.1602.8398-2.4922 1.0156-4.1953.2266-2.1407-.1367-5.1407-1.8203-7.1524-.7266-.8672-1.789-1.3203-2.7578-1.1914-1.1133.1485-2.043.9844-2.7656 2.4649-1.2657 2.5976-1.7578 5.6289-1.418 8.7578.129 1.1523.4648 4.203 2.7617 5.0156Zm.1875-13.0234c.3203-.6485.8242-1.4375 1.4649-1.5235.3984-.0508.8789.1836 1.2265.5977 1.3399 1.6015 1.6172 4.086 1.4297 5.8789-.1562 1.5195-.4375 2.6914-.8789 3.6797-.6055 1.3593-1.8945 3.1328-2.8594 2.7851-1.1601-.4101-1.4882-2.246-1.6367-3.5937-.3008-2.8086.1328-5.5157 1.254-7.8242Zm6.0742 12.4882c.4649-.0703.9024.2422.9805.6993.0586.3359.3867.6875.8828.9296 1.0586.5313 2.4336.4493 3.414-.207.9884-.6523 1.5938-1.8906 1.5235-3.0703-.0703-1.0156-.586-2.086-1.625-3.3555-.2539-.3164-.5273-.625-.793-.9297-.6875-.789-1.4023-1.6054-1.953-2.5664-.7774-1.3632-1.2891-3.6562-.754-5.4023.3008-.9883.9063-1.7305 1.7578-2.1523 1.543-.7579 3.3477-.004 4.3399 1.1289.914 1.0507 1.3125 2.3515 1.6719 3.707.1171.4531-.1563.918-.6094 1.039-.4531.1211-.918-.1523-1.039-.6054-.3165-1.1992-.629-2.25-1.3048-3.0195-.5547-.6368-1.5664-1.086-2.3047-.7227-.4257.211-.7148.5781-.8828 1.125-.375 1.2266.0117 3.0234.6016 4.0586.4648.8086 1.0937 1.5312 1.7578 2.293.2852.3203.5625.6445.836.9726.7968.9844 1.8827 2.5 2 4.3203.121 1.8008-.7774 3.6055-2.2735 4.6016-.8398.5586-1.8398.8398-2.8438.8398-.789 0-1.5742-.1758-2.2812-.5273-.9922-.5-1.6523-1.293-1.793-2.1797-.086-.457.2266-.8945.6914-.9766Zm10.7305-6.6172.0469-8.0117a.9358.9358 0 0 1-.0977-.2773c-.0664-.4649.2578-.8985.7227-.9649a24.4798 24.4798 0 0 1 4.7226-.2226c.4688.0234.832.4219.8047.8906-.0234.4727-.414.836-.8906.8047-1.1875-.0547-2.3828-.0156-3.5664.1094l-.039 7.1836 2.9179-.2032c.4648-.039.875.3204.9102.7891a.8526.8526 0 0 1-.7891.9102l-3.0508.2148-.043 7.461 3.8829-.5274c.4648-.0664.8945.2617.957.7266.0625.4648-.2617.8984-.7266.9609l-4.9101.668c-.039.0078-.0782.0078-.1133.0078-.418 0-.7813-.3125-.8399-.7383-.0234-.1523.0079-.2969.0586-.4336 0-.0273-.0078-.0547-.0078-.082l.0508-8.418c-.0625-.1094-.1016-.2227-.1133-.3516-.0156-.1836.0313-.3515.1133-.496Zm-59.8906-3.3359c-.0742-.4648.2383-.9023.7031-.9765.9414-.1524 1.9023-.2813 2.8516-.3907a55.7026 55.7026 0 0 1 3.8515-.289c.4766-.0118.8672.3437.8868.8164.0156.4726-.3477.8672-.8165.8867-.9648.039-1.9492.1133-2.9257.2031.3476 5.0586.5507 10.1758.6093 15.2383a.8537.8537 0 0 1-.8398.8633h-.0117c-.4649 0-.8477-.375-.8516-.8399a269.5594 269.5594 0 0 0-.6016-15.0742c-.6289.0781-1.2539.164-1.8789.2656a.8078.8078 0 0 1-.1367.0118c-.4101 0-.7734-.293-.8398-.7149Zm-26.539 20.0078c.0429.2657.207.4805.4257.6055a.8436.8436 0 0 0 .6094.2617.839.839 0 0 0 .5625-.2148c3.4453-3.0547 5.418-7.6172 5.2695-12.2188-.0742-2.3437-.7305-4.1523-1.957-5.3594-1.5899-1.5664-3.9375-1.914-5.6524-2.164-.461-.0703-.8984.2578-.9648.7226-.039.2774.0625.543.2422.7266.1445 5.879.6367 11.8164 1.4648 17.6406Zm5.1718-11.5156c.1133 3.6133-1.2422 7.211-3.6719 9.875-.6797-5.1484-1.1015-10.375-1.2422-15.5625 1.3946.2617 2.6055.6406 3.461 1.4844.9023.8984 1.3906 2.3125 1.453 4.2031Zm3.3477 4.6133c.078.3789.1718.7617.2734 1.1289.586 2.0898 1.7344 2.4023 2.371 2.4023h.0079c1.6719 0 3.2852-2.0976 3.8164-4.0312.75-2.7227 1.4102-5.5781.461-7.9102-.59-1.461-1.7813-2.3125-3.1837-2.2812-1.4648.0312-2.7851 1.0351-3.3046 2.5-.8594 2.457-1.0196 5.371-.4415 8.1914Zm2.0507-7.6211c.2774-.7969.9766-1.3477 1.7344-1.3633.6758-.0352 1.2422.414 1.5664 1.2188.8086 1.9921-.0234 5.0117-.5195 6.8164-.3945 1.4297-1.5664 2.7812-2.1875 2.7812-.25 0-.539-.4531-.7305-1.1523a16.7468 16.7468 0 0 1-.246-1.0157c-.5157-2.5312-.379-5.1171.3827-7.2851Zm5.8828 11.586.1758-16.418c.0078-.3985.2774-.7383.664-.8204.3868-.0859.7852.1055.9532.4649 1.4531 3.0234 2.7266 6.0078 3.8438 9.0156 0-2.6484.125-5.2422.2734-7.746.0273-.4688.4297-.8243.8945-.8009.4727.0313.8282.4336.8008.8985-.25 4.3164-.4492 8.9258 0 13.5468.039.4376-.25.832-.6797.918-.4336.086-.8515-.168-.9844-.582a98.7458 98.7458 0 0 0-4.1054-11.0742l-.1367 12.6289c-.0079.4648-.3868.8398-.8516.8398h-.0117c-.461-.0117-.8399-.3984-.836-.871Zm7.3047-17.7735c.1875-.4297.6875-.629 1.1172-.4414 1.1758.5078 1.8516 1.8789 1.539 3.1133-.0976.3867-.4413.6406-.8241.6406-.0664 0-.1329-.004-.207-.0274-.4571-.1132-.7344-.578-.6212-1.0312.1094-.4336-.1523-.9648-.5625-1.1406-.4296-.1836-.6289-.6836-.4414-1.1133Zm0 0"/><g clip-path="url(#b)"><path fill="#f09" d="M84.375 8.0664c-7.2578.3945-13.8242 4.0274-18.0117 9.9649-4.2266 5.9921-5.4531 13.5195-3.3555 20.6406 2.3945 8.121 9.6367 14.8008 18.0195 16.625 1.6524.3554 3.3399.5312 5.0235.5312 6.8164 0 13.6797-2.832 18.4453-7.832 8.6445-9.0625 8.496-22.8633-.3398-32.1055-5.0586-5.3047-12.457-8.2265-19.7813-7.8242Zm18.8945 38.75c-5.5507 5.8164-14.1367 8.4961-21.8789 6.8086-7.793-1.6875-14.5234-7.8906-16.746-15.4414-1.9532-6.6211-.8165-13.6094 3.1093-19.1758 3.8867-5.5117 9.9844-8.8828 16.7148-9.25.4141-.0234.832-.0351 1.2461-.0351 6.422 0 12.7774 2.6914 17.2149 7.332 8.1992 8.582 8.3437 21.375.3398 29.7617ZM14.3477 37.004c-1.7032-4.996 1.9882-10.4844 6.3789-12.7031 5.0078-2.5313 11.1289-2.1875 15.9101-1.6094 7.5977.918 15.086 2.7305 22.2696 5.3555-.5235 3.7968-.2461 7.7265.8789 11.5547 1.8906 6.4023 6.4257 12.0156 12.207 15.5507 3.2344.2891 6.6055 1.2422 10.086 2.8672.6874.3164 1.3632.664 2.0273 1.0235.6289.043 1.2578.0703 1.8945.0703 7.754 0 15.5625-3.2227 20.9883-8.9102 5.043-5.289 7.4453-11.996 7.2422-18.6914 1.6406-1.2148 3.4336-1.375 5.2187-.4726.5 5.2617 2.625 10.3242 6.2656 14.4882.6836-.1171 1.3711-.2148 2.0625-.2734-4.2695-4.4414-6.5625-10.121-6.7265-15.9727l.0156-1.7109c.1992-4.8242 1.836-9.6914 4.9844-14.0117 4.6328-6.3438 12.0664-10.4922 19.8984-11.1016a26.1214 26.1214 0 0 1 1.9922-.078c6.9961 0 13.625 2.875 18.4336 8.0624 2.5977 2.8047 4.4844 6.1016 5.5938 9.6563.0078.1171.0351.2421.0976.3554a.3435.3435 0 0 1 .0234.039c1.0625 3.5938 1.3282 7.4376.7305 11.297-.4687 3.0351-1.5703 5.957-3.1445 8.6367.125.0976.2383.2031.332.3281.2695.3711.379.8281.3047 1.2852-.039.2539-.0742.5039-.1055.7578 2.1875-3.2461 3.7032-6.9219 4.3008-10.7422.6133-3.9453.3633-7.8711-.6523-11.5703 6.7773-3.5586 13.953-6.3399 21.3672-8.2578 4.6601-1.2032 10.6875-2.3516 15.9804-.5078 4.6485 1.625 9.0352 6.5742 8.004 11.75-.09.457.2109.9062.6679 1 .0586.0078.1133.0156.164.0156.3985 0 .7579-.2774.836-.6875 1.2266-6.1524-3.6719-11.793-9.1133-13.6875-5.7265-2-12.0781-.8008-16.9687.4648-7.4375 1.9219-14.6446 4.7031-21.4532 8.25-1.2109-3.496-3.1328-6.746-5.7226-9.539C162.0039 3.2227 154.0547.121 145.8125.7539c-8.3203.6484-16.2188 5.0586-21.1406 11.8008-2.9414 4.0273-4.6406 8.5-5.1719 13.0078-2.0234-.7773-4.129-.6094-6.0195.4922-1.1016-4.4492-3.3946-8.7149-6.879-12.3594C100.836 7.6641 92.4259 4.336 84.086 4.7891c-8.25.457-15.7187 4.5859-20.4882 11.3359a26.9083 26.9083 0 0 0-4.4024 10.2148c-7.2187-2.621-14.7266-4.4218-22.3555-5.3476-5.0156-.6055-11.4687-.9531-16.8789 1.7851-5.1132 2.586-9.203 8.7657-7.2539 14.6797.5508-.1367 1.1094-.2656 1.6524-.4023a.1203.1203 0 0 0-.0117-.0508Zm46.3125-9.1719c.0039-.0117.0156-.0273.0234-.039.043-.1211.0547-.25.0508-.3711.6289-3.664 2.0664-7.1836 4.2656-10.3086C69.461 10.789 76.461 6.918 84.1914 6.4922c.4766-.0274.957-.039 1.4336-.039 7.3633 0 14.6602 3.0859 19.75 8.4179 3.5938 3.7539 5.836 8.2266 6.7266 12.8476l.328 2.3086c.6368 6.7618-1.578 13.6563-6.6679 18.9961-6.3672 6.6797-16.2187 9.7461-25.1094 7.8164-8.9414-1.9414-16.6718-9.0625-19.2226-17.7265-1.1094-3.7383-1.3477-7.582-.7695-11.2813Zm87.8203 25.5274c.828-.0352 1.6562-.1016 2.4726-.2149-.0312.5782-.0742 1.1524-.1054 1.7305a26.608 26.608 0 0 1-.9415.1016 27.017 27.017 0 0 0-1.4257-1.6172Zm2.668-3.5742c-.0352.5859-.0626 1.164-.0977 1.7421-1.2422.1875-2.4961.2891-3.7578.2891-.1407 0-.289-.0039-.4297-.0117-.75-.6563-1.5313-1.2813-2.3438-1.8555 2.207.2617 4.4493.2031 6.629-.164Zm20.039-18.2344c-.461 2.9687-1.5625 5.8281-3.1406 8.4219a28.2454 28.2454 0 0 0-1.8946-.1836c1.6993-2.582 2.8829-5.4805 3.3477-8.5 1.0625-6.8204-.9844-13.5977-5.6172-18.5977-4.1875-4.5195-9.961-7.0273-16.0547-7.0273-.5781 0-1.1523.0234-1.7383.0703-6.8203.5312-13.3007 4.1484-17.3359 9.6758-6.9922 9.578-5.4453 22.2734 3.5977 29.5351.1992.1563.4023.3008.6054.4531-.9882-.1367-1.9726-.2226-2.9453-.2343-8.6133-7.9727-9.8242-20.9024-2.6328-30.7578 4.3242-5.9258 11.2734-9.8047 18.582-10.3711 7.2461-.5625 14.2344 2.168 19.172 7.496 4.9882 5.3829 7.1952 12.6797 6.0546 20.0196Zm0 0"/></g></svg>