<svg xmlns="http://www.w3.org/2000/svg" xmlns:xlink="http://www.w3.org/1999/xlink" version="1.1" id="Capa_1" x="0px" y="0px" viewBox="0 0 512 512" style="enable-background:new 0 0 512 512;" xml:space="preserve">
	<circle style="fill:#FFB74F;" cx="256" cy="256" r="256" />
	<path style="fill:#FE880C;" d="M511.979,257.635L392.866,138.522C359.343,103.223,310.454,80.974,256,80.974  c-101.07,0-183.003,76.622-183.003,171.14c0,46.8,20.095,89.205,52.647,120.101l139.601,139.601  C401.803,506.966,511.117,395.174,511.979,257.635z" />
	<path style="fill:#FFFFFF;" d="M439.003,252.113c0-94.518-81.933-171.14-183.003-171.14S72.997,157.596,72.997,252.113  c0,94.518,81.933,171.14,183.003,171.14c30.079,0,58.462-6.788,83.496-18.813l0,0l76.243,18.813l-25.924-54.414  C420.324,338.264,439.003,297.232,439.003,252.113z" />
	<path style="fill:#FFF5CB;" d="M389.81,368.836l25.929,54.413l-76.241-18.805c-25.035,12.021-53.419,18.805-83.493,18.805V80.975  C357.068,80.975,439,157.598,439,252.119C439,297.236,420.323,338.266,389.81,368.836z" />
	<polygon style="fill:#00DEC1;" points="333.207,166.544 230.9,278.622 173.926,230.142 139.07,271.106 235.607,353.247   372.93,202.803 " />
	<polygon style="fill:#00CDB4;" points="372.925,202.794 255.988,330.913 255.988,251.141 333.203,166.554 " />
	<g>
	</g>
	<g>
	</g>
	<g>
	</g>
	<g>
	</g>
	<g>
	</g>
	<g>
	</g>
	<g>
	</g>
	<g>
	</g>
	<g>
	</g>
	<g>
	</g>
	<g>
	</g>
	<g>
	</g>
	<g>
	</g>
	<g>
	</g>
	<g>
	</g>
</svg>
