<svg xmlns="http://www.w3.org/2000/svg" height="512" viewBox="0 0 64 64" width="512">
	<g id="Icons">
		<g>
			<g>
				<g>
					<path d="m32 42c-8.822 0-16-7.178-16-16s7.178-16 16-16 16 7.178 16 16-7.178 16-16 16zm0-30c-7.72 0-14 6.28-14 14s6.28 14 14 14 14-6.28 14-14-6.28-14-14-14z" fill="#fab400" />
				</g>
			</g>
			<g>
				<g>
					<path d="m32 47c-11.58 0-21-9.42-21-21s9.42-21 21-21 21 9.42 21 21-9.42 21-21 21zm0-40c-10.477 0-19 8.523-19 19s8.523 19 19 19 19-8.523 19-19-8.523-19-19-19z" fill="#00a0c8" />
				</g>
			</g>
			<g>
				<g>
					<path d="m16 53h32v2h-32z" fill="#0a5078" />
				</g>
			</g>
			<g>
				<g>
					<g>
						<circle cx="32" cy="54" fill="#fab400" r="6" />
					</g>
				</g>
				<g>
					<g>
						<path d="m31 57c-.256 0-.512-.098-.707-.293l-2-2c-.391-.391-.391-1.023 0-1.414s1.023-.391 1.414 0l1.293 1.293 3.293-3.293c.391-.391 1.023-.391 1.414 0s.391 1.023 0 1.414l-4 4c-.195.195-.451.293-.707.293z" fill="#c80a50" />
					</g>
				</g>
			</g>
			<g>
				<g>
					<g>
						<circle cx="16" cy="54" fill="#fab400" r="6" />
					</g>
				</g>
				<g>
					<g>
						<path d="m15 57c-.256 0-.512-.098-.707-.293l-2-2c-.391-.391-.391-1.023 0-1.414s1.023-.391 1.414 0l1.293 1.293 3.293-3.293c.391-.391 1.023-.391 1.414 0s.391 1.023 0 1.414l-4 4c-.195.195-.451.293-.707.293z" fill="#c80a50" />
					</g>
				</g>
			</g>
			<g>
				<g>
					<g>
						<circle cx="48" cy="54" fill="#fab400" r="6" />
					</g>
				</g>
				<g>
					<g>
						<path d="m47 57c-.256 0-.512-.098-.707-.293l-2-2c-.391-.391-.391-1.023 0-1.414s1.023-.391 1.414 0l1.293 1.293 3.293-3.293c.391-.391 1.023-.391 1.414 0s.391 1.023 0 1.414l-4 4c-.195.195-.451.293-.707.293z" fill="#c80a50" />
					</g>
				</g>
			</g>
			<g>
				<g>
					<circle cx="32" cy="26" fill="#00a0c8" r="10" />
				</g>
			</g>
			<g>
				<path d="m37 30h-10c-1.364 0-2.515.911-2.879 2.158 1.83 2.339 4.679 3.842 7.879 3.842s6.049-1.503 7.879-3.842c-.364-1.247-1.515-2.158-2.879-2.158z" fill="#c80a50" />
				<g>
					<g>
						<path d="m32 32c-1.105 0-2-.895-2-2v-3h4v3c0 1.105-.895 2-2 2z" fill="#d2aa82" />
					</g>
				</g>
				<g>
					<g>
						<path d="m33 28h-2c-1.657 0-3-1.343-3-3v-3c0-1.105.895-2 2-2h4c1.105 0 2 .895 2 2v3c0 1.657-1.343 3-3 3z" fill="#f0c8a0" />
					</g>
				</g>
				<g>
					<g>
						<path d="m34 20h-4c-1.105 0-2 .895-2 2v-2c0-1.105.895-2 2-2h4c1.105 0 2 .895 2 2v2c0-1.105-.895-2-2-2z" fill="#0a5078" />
					</g>
				</g>
			</g>
			<g>
				<g>
					<path d="m9.879 23.879h4.243v4.243h-4.243z" fill="#fab400" transform="matrix(.707 -.707 .707 .707 -14.87 16.101)" />
				</g>
				<g>
					<path d="m12 30c-.256 0-.512-.098-.707-.293l-3-3c-.391-.391-.391-1.023 0-1.414l3-3c.391-.391 1.023-.391 1.414 0l3 3c.391.391.391 1.023 0 1.414l-3 3c-.195.195-.451.293-.707.293zm-1.586-4 1.586 1.586 1.586-1.586-1.586-1.586z" fill="#c80a50" />
				</g>
			</g>
			<g>
				<g>
					<path d="m49.879 23.879h4.243v4.243h-4.243z" fill="#fab400" transform="matrix(.707 -.707 .707 .707 -3.154 44.385)" />
				</g>
				<g>
					<path d="m52 30c-.256 0-.512-.098-.707-.293l-3-3c-.391-.391-.391-1.023 0-1.414l3-3c.391-.391 1.023-.391 1.414 0l3 3c.391.391.391 1.023 0 1.414l-3 3c-.195.195-.451.293-.707.293zm-1.586-4 1.586 1.586 1.586-1.586-1.586-1.586z" fill="#c80a50" />
				</g>
			</g>
			<g>
				<g>
					<circle cx="21.5" cy="8.5" fill="#fab400" r="2.5" />
				</g>
				<g>
					<path d="m21.5 12c-1.93 0-3.5-1.57-3.5-3.5s1.57-3.5 3.5-3.5 3.5 1.57 3.5 3.5-1.57 3.5-3.5 3.5zm0-5c-.827 0-1.5.673-1.5 1.5s.673 1.5 1.5 1.5 1.5-.673 1.5-1.5-.673-1.5-1.5-1.5z" fill="#0a5078" />
				</g>
			</g>
			<g>
				<g>
					<circle cx="42.5" cy="8.5" fill="#fab400" r="2.5" />
				</g>
				<g>
					<path d="m42.5 12c-1.93 0-3.5-1.57-3.5-3.5s1.57-3.5 3.5-3.5 3.5 1.57 3.5 3.5-1.57 3.5-3.5 3.5zm0-5c-.827 0-1.5.673-1.5 1.5s.673 1.5 1.5 1.5 1.5-.673 1.5-1.5-.673-1.5-1.5-1.5z" fill="#00a0c8" />
				</g>
			</g>
			<g>
				<g>
					<circle cx="42.5" cy="43.5" fill="#fab400" r="2.5" />
				</g>
				<g>
					<path d="m42.5 47c-1.93 0-3.5-1.57-3.5-3.5s1.57-3.5 3.5-3.5 3.5 1.57 3.5 3.5-1.57 3.5-3.5 3.5zm0-5c-.827 0-1.5.673-1.5 1.5s.673 1.5 1.5 1.5 1.5-.673 1.5-1.5-.673-1.5-1.5-1.5z" fill="#0a5078" />
				</g>
			</g>
			<g>
				<g>
					<circle cx="21.5" cy="43.5" fill="#fab400" r="2.5" />
				</g>
				<g>
					<path d="m21.5 47c-1.93 0-3.5-1.57-3.5-3.5s1.57-3.5 3.5-3.5 3.5 1.57 3.5 3.5-1.57 3.5-3.5 3.5zm0-5c-.827 0-1.5.673-1.5 1.5s.673 1.5 1.5 1.5 1.5-.673 1.5-1.5-.673-1.5-1.5-1.5z" fill="#00a0c8" />
				</g>
			</g>
		</g>
	</g>
</svg>
