<svg xmlns="http://www.w3.org/2000/svg" id="Capa_1" enable-background="new 0 0 512 512" height="512" viewBox="0 0 512 512" width="512">
	<g>
		<g>
			<g>
				<path d="m145.743 381.417-1.397-13.751-25.695-15.73-32.896 32.894 7.78 20.506 20.508 7.779 22.812-10.083z" fill="#e5ecf7" />
				<g>
					<path d="m145.743 381.417-31.7 31.698.205 12.932 12.933.206 32.897-32.894-.943-12.196z" fill="#b9cbea" />
				</g>
				<path d="m56.44 494.381 60.343-60.337 2.731-15.458-35.553-35.55c-2.031-2.031-5.323-2.031-7.354 0l-65.761 65.755c-12.192 12.191-14.104 30.769-5.738 44.964 15.603 15.601 39.14 12.817 51.332.626z" fill="#384656" />
				<path d="m74.016 209.826c0 60.484 23.547 114.209 63.966 154.624 85.564 85.556 224.291 85.556 309.856 0 40.419-40.415 63.966-99.323 63.966-154.624-2.428-57.557-27.418-114.34-75-155.94-82.18-71.849-205.61-71.849-287.789 0-47.581 41.6-72.571 98.383-74.999 155.94z" fill="#ffe07d" />
				<path d="m117.886 209.826c0 46.191 19.223 91.78 51.084 123.638 68.45 68.444 179.429 68.444 247.879 0 31.861-31.858 51.084-75.316 51.084-123.638-2.789-52.857-29.382-104.692-79.814-138.047-52.101-34.458-138.319-34.459-190.42 0-50.43 33.355-77.024 85.191-79.813 138.047z" fill="#e7a561" />
				<path d="m447.838 355.45c-85.564 85.557-224.291 85.557-309.856 0-40.419-40.415-61.733-92.692-63.966-145.624-2.494 59.123 18.82 119.062 63.966 164.204 85.564 85.556 224.291 85.556 309.856 0 45.146-45.142 66.46-105.081 63.966-164.204-2.233 52.932-23.547 105.209-63.966 145.624z" fill="#ffd064" />
				<path d="m416.85 324.465c-68.45 68.444-179.429 68.444-247.879 0-31.861-31.858-48.884-72.931-51.084-114.639-2.527 47.897 14.496 96.632 51.084 133.218 68.45 68.444 179.429 68.444 247.879 0 36.589-36.586 53.611-85.321 51.084-133.218-2.201 41.708-19.223 82.78-51.084 114.639z" fill="#e49542" />
				<path d="m119.514 418.586-69.438 69.432c-12.192 12.191-30.772 14.103-44.968 5.737 1.557 2.642 3.469 5.132 5.738 7.4 14.461 14.46 37.908 14.46 52.369 0l65.761-65.755c2.031-2.031 2.031-5.323 0-7.353z" fill="#2f3b48" />
			</g>
			<g fill="#fff">
				<path d="m302.319 183.707c4.285 0 7.758-3.473 7.758-7.757s-3.473-7.757-7.758-7.757h-36.327c-4.285 0-7.758 3.473-7.758 7.757v86.206c0 4.284 3.473 7.757 7.758 7.757h36.327c4.285 0 7.758-3.473 7.758-7.757s-3.473-7.757-7.758-7.757h-28.57v-27.589h25.891c4.285 0 7.758-3.473 7.758-7.757s-3.473-7.757-7.758-7.757h-25.891v-27.589z" />
				<path d="m210.363 254.796c-9.513 0-18.699-3.869-24.573-10.349-2.877-3.173-7.782-3.416-10.958-.538-3.175 2.877-3.416 7.782-.538 10.957 8.765 9.67 22.249 15.444 36.069 15.444 16.552 0 30.972-10.854 33.543-25.249 2.965-16.605-10.094-27.728-23.303-32.6-11.197-4.13-21.583-8.639-24.204-9.79-2.78-2.037-4.129-5.291-3.624-8.811.636-4.43 4.041-7.987 9.108-9.513 13.97-4.204 26.583 5.917 26.823 6.112 3.279 2.73 8.151 2.299 10.901-.971 2.757-3.279 2.333-8.172-.947-10.929-.768-.646-19.079-15.742-41.252-9.066-10.837 3.264-18.497 11.756-19.991 22.163-1.391 9.689 2.805 19.007 10.952 24.318.343.223.703.419 1.076.586.499.223 12.39 5.515 25.788 10.457 9.62 3.548 14.503 9.131 13.398 15.318-1.078 6.041-7.848 12.461-18.268 12.461z" />
				<path d="m420.237 219.053c0-28.263-22.996-51.257-51.263-51.257-28.266 0-51.261 22.994-51.261 51.257s22.995 51.257 51.261 51.257c28.267 0 51.263-22.994 51.263-51.257zm-87.008 0c0-19.709 16.035-35.743 35.745-35.743 19.711 0 35.747 16.035 35.747 35.743s-16.036 35.743-35.747 35.743c-19.71 0-35.745-16.034-35.745-35.743z" />
			</g>
		</g>
	</g>
</svg>
