<?xml version="1.0" encoding="iso-8859-1"?>
<!-- Uploaded to: SVG Repo, www.svgrepo.com, Generator: SVG Repo Mixer Tools -->
<svg fill="#000000" height="800px" width="800px" version="1.1" id="Layer_1" xmlns="http://www.w3.org/2000/svg" xmlns:xlink="http://www.w3.org/1999/xlink" 
	 viewBox="0 0 512.066 512.066" xml:space="preserve">
<g>
	<g>
		<path d="M505.399,376.258c-19.435-36.736-81.472-73.813-88.704-78.059c-14.421-8.213-29.739-10.731-42.987-7.019
			c-10.432,2.88-18.965,9.301-24.789,18.624c-8.128,9.685-18.176,21.077-20.288,22.933c-16.405,11.115-27.179,9.941-41.323-4.203
			L183.522,224.727c-14.336-14.336-15.403-24.747-4.757-40.512c2.432-2.88,13.824-12.949,23.488-21.077
			c9.323-5.824,15.723-14.357,18.624-24.768c3.691-13.333,1.216-28.608-7.147-43.221c-4.096-6.997-41.216-69.056-77.909-88.491
			C113.612-5.075,86.754-1.043,68.983,16.727L46.071,39.639C4.62,81.069-45.812,169.645,81.847,297.303l128.085,128.085
			l-17.92,26.88l-24.917-37.376c-7.915-11.883-27.584-11.883-35.499,0l-24.917,37.376l-24.917-37.376
			c-7.915-11.883-27.584-11.883-35.499,0l-42.667,64c-6.549,9.813-3.904,23.061,5.909,29.589c3.648,2.432,7.744,3.584,11.819,3.584
			c6.891,0,13.653-3.349,17.771-9.515l24.917-37.376l24.917,37.376c7.915,11.883,27.584,11.883,35.499,0l24.917-37.376
			l24.917,37.376c7.915,11.883,27.584,11.883,35.499,0l31.851-47.787c49.664,41.941,92.779,56.875,128.768,56.875
			c46.059,0,80.448-24.043,102.037-45.632l22.912-22.933C513.1,425.325,517.154,398.466,505.399,376.258z"/>
	</g>
</g>
</svg>