<?xml version="1.0" standalone="no"?>
<!DOCTYPE svg PUBLIC "-//W3C//DTD SVG 20010904//EN"
 "http://www.w3.org/TR/2001/REC-SVG-20010904/DTD/svg10.dtd">
<svg version="1.0" xmlns="http://www.w3.org/2000/svg"
 width="1000.000000pt" height="1000.000000pt" viewBox="0 0 1000.000000 1000.000000"
 preserveAspectRatio="xMidYMid meet">
<metadata>
Created by potrace 1.14, written by Peter Selinger 2001-2017
</metadata>
<g transform="translate(0.000000,1000.000000) scale(0.100000,-0.100000)"
fill="#000000" stroke="none">
<path d="M2990 8090 c-83 -8 -209 -29 -280 -46 -169 -43 -218 -57 -245 -69
-16 -7 -68 -25 -115 -40 -91 -29 -159 -56 -200 -80 -14 -8 -46 -25 -72 -38
-26 -14 -63 -34 -82 -47 -20 -12 -36 -18 -36 -13 0 4 -4 3 -8 -2 -4 -6 -29
-24 -57 -40 -27 -15 -77 -47 -110 -69 -33 -22 -63 -41 -67 -41 -3 0 -45 -34
-93 -75 -48 -41 -101 -85 -118 -98 -18 -13 -53 -44 -78 -70 -25 -26 -55 -54
-65 -63 -30 -24 -124 -131 -124 -139 0 -8 -34 -52 -107 -139 -42 -50 -103
-162 -103 -190 0 -23 58 -73 117 -101 24 -11 51 -28 61 -38 10 -9 34 -26 55
-37 20 -11 37 -24 37 -29 0 -5 3 -6 6 -3 6 6 37 -7 58 -24 54 -45 92 -69 117
-74 16 -4 29 -11 29 -17 0 -6 3 -8 6 -5 4 4 23 -6 43 -22 41 -32 188 -121 201
-121 14 0 104 99 117 128 6 15 26 41 43 57 18 17 47 53 65 80 41 65 69 94 125
132 25 17 65 50 90 74 48 48 118 90 277 169 213 105 455 170 688 185 145 9
514 -26 640 -60 28 -8 65 -17 83 -20 19 -3 44 -12 56 -20 31 -21 126 -52 194
-65 31 -5 62 -16 67 -23 6 -6 44 -29 85 -51 41 -21 82 -46 90 -56 13 -14 85
-47 162 -73 9 -3 25 -19 35 -34 10 -15 27 -35 38 -43 11 -8 32 -26 47 -41 15
-15 29 -25 31 -22 3 2 14 -7 25 -21 11 -15 23 -26 26 -26 4 0 26 -19 50 -42
24 -24 53 -50 63 -59 36 -32 122 -128 140 -156 10 -15 30 -39 44 -53 14 -14
34 -40 45 -57 10 -18 23 -33 30 -33 6 0 23 -17 36 -37 36 -55 97 -113 119
-113 10 0 23 6 29 13 6 6 29 32 50 57 22 24 40 47 40 51 0 4 19 21 43 38 46
34 167 169 167 187 0 10 85 104 223 246 37 38 67 67 67 64 0 -3 19 15 41 39
23 25 45 45 50 45 10 0 111 64 130 82 49 47 226 129 331 152 15 3 44 17 64 31
20 14 45 25 56 25 10 0 44 9 76 21 31 11 89 22 127 25 39 3 115 10 170 16 130
15 200 15 310 0 193 -27 424 -87 475 -122 14 -9 42 -23 62 -29 20 -7 38 -15
40 -19 2 -4 27 -20 57 -35 30 -16 81 -51 115 -79 93 -76 94 -77 98 -73 2 2 52
-45 112 -106 60 -60 106 -109 102 -109 -4 0 5 -12 19 -27 14 -15 25 -33 25
-40 0 -6 3 -13 8 -15 8 -3 82 -123 82 -133 0 -3 11 -21 24 -38 13 -18 38 -77
56 -132 17 -55 41 -123 51 -151 11 -28 22 -84 24 -125 2 -41 9 -112 15 -158 8
-58 8 -111 1 -170 -6 -47 -13 -117 -16 -156 -11 -120 -117 -414 -177 -494 -14
-19 -16 -27 -6 -38 10 -12 83 -14 477 -12 346 2 471 5 489 15 41 21 56 54 67
145 3 18 11 53 19 78 8 25 18 71 21 101 4 30 13 80 21 110 17 66 27 228 28
450 1 172 -10 245 -65 435 -11 39 -27 95 -34 125 -16 64 -53 170 -65 185 -5 6
-30 60 -55 120 -25 61 -73 156 -105 212 -33 56 -60 105 -60 108 0 7 -70 100
-104 139 -14 16 -26 32 -26 36 0 4 -8 17 -19 29 -10 12 -29 37 -42 56 -13 19
-33 38 -44 41 -11 4 -76 64 -145 133 -69 70 -147 140 -175 156 -27 16 -70 49
-93 74 -24 25 -47 45 -50 44 -14 -5 -49 11 -94 44 -26 19 -72 44 -103 57 -31
12 -65 30 -76 39 -10 9 -25 17 -33 17 -7 0 -19 7 -26 15 -7 8 -18 15 -26 15
-7 0 -48 15 -91 34 -100 44 -186 73 -243 81 -25 3 -56 14 -70 23 -27 17 -173
45 -330 62 -133 15 -567 10 -655 -7 -38 -8 -96 -18 -129 -24 -32 -5 -75 -18
-95 -28 -20 -10 -56 -22 -81 -26 -61 -9 -238 -63 -245 -75 -3 -5 -31 -16 -61
-25 -59 -17 -98 -36 -149 -70 -17 -12 -65 -38 -108 -59 -42 -20 -75 -41 -72
-47 4 -5 -7 -14 -22 -21 -15 -7 -30 -15 -33 -18 -3 -3 -39 -31 -80 -62 -41
-30 -92 -72 -113 -92 -21 -20 -44 -36 -51 -36 -6 0 -43 -33 -81 -72 -38 -40
-73 -71 -79 -70 -6 2 -8 0 -4 -3 13 -14 -40 -45 -74 -45 -28 0 -43 9 -81 50
-26 28 -51 50 -55 50 -5 0 -24 17 -43 39 -19 21 -46 44 -59 51 -13 7 -52 35
-86 61 -34 27 -66 49 -70 49 -5 0 -27 17 -49 38 -22 21 -56 45 -76 54 -19 10
-43 26 -53 36 -16 18 -125 73 -153 78 -7 1 -30 13 -50 26 -35 21 -116 54 -154
63 -9 2 -37 13 -62 24 -25 12 -53 21 -61 21 -9 0 -16 5 -16 11 0 5 -4 7 -10 4
-5 -3 -19 -1 -30 5 -11 6 -57 20 -103 30 -45 11 -134 33 -197 50 -63 16 -155
35 -205 41 -91 10 -505 10 -625 -1z"/>
<path d="M706 7008 c-9 -12 -16 -28 -16 -36 0 -7 -5 -23 -12 -35 -16 -29 -55
-138 -73 -207 -9 -30 -24 -76 -35 -102 -11 -26 -20 -69 -20 -97 0 -27 -7 -81
-15 -119 -23 -111 -24 -133 -25 -398 0 -194 4 -284 19 -395 11 -79 22 -167 25
-195 2 -28 13 -80 24 -115 11 -35 25 -91 32 -124 15 -81 15 -79 23 -92 4 -6
10 -33 13 -60 3 -26 12 -62 20 -79 8 -18 21 -60 30 -95 9 -35 22 -76 30 -90 7
-15 20 -44 28 -65 8 -22 31 -82 51 -134 20 -52 41 -108 47 -125 6 -16 17 -37
24 -45 12 -14 94 -183 94 -194 0 -2 15 -20 33 -40 46 -51 82 -97 96 -123 6
-12 35 -44 64 -72 28 -27 75 -79 102 -115 28 -36 54 -65 58 -66 12 0 147 -138
147 -150 0 -5 26 -23 58 -39 31 -16 86 -57 122 -91 36 -33 97 -83 137 -109 68
-47 113 -84 174 -144 15 -15 45 -35 66 -43 21 -9 40 -20 43 -24 3 -4 37 -26
75 -49 39 -23 90 -59 113 -80 23 -21 42 -37 42 -35 0 10 97 -46 115 -66 11
-12 49 -36 85 -54 101 -50 204 -108 212 -120 4 -6 8 -7 8 -2 0 5 10 0 23 -11
25 -23 148 -93 254 -145 39 -20 96 -52 126 -72 30 -20 57 -36 62 -36 8 0 127
-71 135 -81 3 -3 22 -12 43 -18 21 -7 49 -23 63 -36 14 -13 60 -38 102 -55 42
-17 84 -39 92 -49 8 -9 18 -18 23 -19 4 -1 29 -13 57 -27 27 -14 55 -25 61
-25 7 0 26 -11 43 -24 39 -29 102 -61 139 -70 16 -4 40 -17 54 -30 14 -13 56
-36 94 -51 38 -14 79 -39 92 -53 13 -15 45 -38 72 -52 28 -14 63 -37 80 -51
16 -14 52 -38 78 -54 27 -15 51 -34 54 -41 3 -8 11 -14 17 -14 7 0 35 -24 62
-53 67 -73 75 -82 106 -113 15 -14 26 -30 23 -34 -2 -4 7 -13 20 -20 13 -7 37
-31 52 -52 15 -22 36 -47 47 -56 25 -21 116 -154 116 -170 0 -7 4 -12 9 -12 5
0 24 -24 41 -52 18 -29 36 -55 41 -58 4 -3 15 -21 23 -40 34 -77 77 -105 143
-96 71 10 100 24 114 57 6 17 25 44 41 61 16 17 36 45 45 62 9 17 23 38 33 46
9 8 30 35 47 60 40 58 409 430 427 430 4 0 25 17 47 37 22 20 57 48 77 62 20
15 48 39 62 55 13 15 44 37 67 48 23 11 52 30 65 42 13 12 43 34 67 50 48 31
52 34 94 71 15 14 32 25 38 25 10 0 60 33 91 61 10 9 48 31 84 49 36 18 78 43
92 54 15 12 47 31 72 41 25 11 50 23 55 28 19 16 80 51 155 89 122 62 290 171
329 212 13 14 28 23 32 20 5 -3 9 -1 9 5 0 6 19 20 43 32 23 12 59 39 79 60
21 22 44 39 52 39 7 0 29 17 47 38 19 21 50 48 70 60 20 12 56 40 80 62 24 22
47 40 50 40 8 0 39 27 140 123 47 45 94 89 105 98 10 9 29 27 41 40 12 13 40
42 62 64 23 22 41 43 41 47 0 5 4 8 9 8 9 0 181 169 181 177 0 10 134 138 142
135 5 -1 7 2 3 8 -3 5 -3 10 2 10 4 0 19 16 32 35 13 20 34 38 47 41 13 4 24
10 24 14 0 11 163 180 173 180 5 0 27 18 50 39 23 22 56 50 72 63 17 13 40 35
52 49 13 15 37 34 56 42 18 9 70 46 116 84 46 37 106 85 134 106 27 21 60 50
73 64 14 15 46 40 71 57 26 17 58 47 71 66 22 32 22 35 6 47 -10 7 -28 13 -41
13 -12 0 -48 10 -79 21 -56 21 -154 40 -206 39 -15 0 -46 6 -70 14 -51 17
-119 24 -323 32 -151 5 -274 -4 -385 -31 -30 -7 -90 -16 -133 -19 -54 -5 -119
-21 -209 -52 -72 -25 -156 -50 -188 -54 -33 -5 -91 -25 -139 -49 -45 -22 -85
-40 -89 -39 -4 1 -29 -8 -56 -20 -27 -12 -54 -22 -61 -22 -6 0 -30 -13 -53
-30 -38 -27 -112 -64 -112 -55 0 2 -15 -10 -32 -26 -42 -38 -186 -111 -212
-107 -11 2 -28 17 -38 34 -26 44 -28 228 -4 297 14 38 15 52 5 63 -16 19 -73
18 -90 -3 -8 -9 -35 -26 -60 -37 -68 -31 -271 -216 -339 -309 -19 -26 -52 -70
-72 -96 -21 -27 -38 -52 -38 -55 0 -6 -50 -86 -60 -96 -3 -3 -6 -12 -8 -20 -2
-8 -9 -22 -17 -30 -14 -17 -75 -144 -75 -158 0 -5 -8 -20 -19 -33 -10 -13 -24
-42 -31 -64 -7 -22 -16 -42 -19 -45 -4 -3 -15 -34 -25 -70 -10 -36 -21 -72
-24 -80 -7 -19 -6 -16 -21 -69 -7 -24 -19 -54 -26 -65 -7 -12 -21 -49 -30 -84
-15 -59 -80 -193 -97 -200 -4 -2 -8 -9 -8 -16 0 -7 -10 -32 -23 -57 -13 -24
-63 -120 -112 -214 -48 -93 -93 -177 -100 -185 -7 -8 -24 -37 -37 -65 -81
-165 -179 -350 -188 -353 -5 -2 -14 -20 -21 -40 -6 -20 -22 -50 -35 -65 -13
-16 -24 -34 -24 -40 0 -6 -12 -28 -27 -50 -15 -21 -28 -48 -30 -59 -6 -37 -23
-58 -48 -58 -17 0 -26 7 -29 23 -6 28 -52 248 -65 307 -35 164 -123 453 -171
563 -11 25 -21 57 -22 71 -1 14 -5 26 -9 26 -8 0 -28 47 -32 75 -1 11 -5 25
-8 30 -4 6 -12 27 -19 49 -7 21 -29 68 -50 105 -21 37 -50 95 -65 130 -36 87
-146 315 -155 321 -12 9 -70 98 -70 108 0 6 -4 12 -8 14 -4 2 -21 30 -37 63
-16 33 -40 74 -53 90 -56 70 -124 174 -148 222 -13 29 -34 58 -46 64 -30 16
-48 35 -41 43 4 3 2 6 -4 6 -6 0 -27 28 -48 63 -21 34 -52 76 -69 92 -18 17
-59 66 -92 109 -32 44 -70 91 -84 106 -55 58 -122 139 -118 144 1 3 -14 18
-34 33 -21 14 -38 32 -38 39 0 6 -7 14 -15 18 -8 3 -15 12 -15 21 0 8 -5 15
-10 15 -6 0 -18 13 -28 29 -9 15 -35 49 -57 73 -66 76 -74 86 -67 94 4 4 2 4
-5 0 -8 -4 -24 10 -43 36 -17 24 -36 50 -43 58 -7 8 -28 35 -47 60 -19 25 -40
49 -46 55 -6 5 -24 28 -40 50 -16 21 -37 47 -46 57 -10 10 -18 24 -18 31 0 6
-22 35 -48 63 -26 27 -65 72 -87 100 -60 73 -166 178 -202 199 -43 25 -64 9
-53 -41 4 -19 12 -40 18 -47 23 -28 33 -288 13 -340 -14 -35 -41 -35 -79 1
-45 42 -104 87 -137 104 -63 31 -87 45 -222 128 -76 46 -149 86 -163 88 -26 3
-102 43 -131 69 -10 8 -39 20 -65 27 -56 16 -224 88 -334 145 -41 21 -93 44
-115 51 -22 7 -44 17 -50 24 -5 6 -48 29 -95 50 -47 22 -96 49 -110 61 -14 12
-47 35 -75 51 -27 15 -52 31 -55 34 -3 3 -23 18 -45 34 -86 64 -265 243 -265
267 0 6 -31 57 -70 114 -64 96 -106 175 -94 175 3 0 -1 7 -10 15 -15 15 -36
76 -36 103 0 19 -40 135 -52 150 -15 17 -25 15 -42 -10z m1089 -2172 c19 -18
35 -38 35 -45 0 -6 4 -11 9 -11 17 0 201 -174 201 -190 0 -5 9 -11 19 -15 11
-3 33 -18 49 -33 16 -15 62 -56 103 -92 41 -36 76 -68 77 -72 2 -5 10 -8 18
-8 15 0 117 -60 122 -72 2 -4 8 -8 13 -8 6 0 15 -4 22 -10 59 -48 75 -59 81
-53 3 3 6 1 6 -5 0 -7 7 -12 15 -12 8 0 15 -4 15 -9 0 -5 11 -12 24 -15 14 -3
55 -26 92 -51 37 -25 78 -48 90 -51 13 -3 28 -12 35 -20 6 -8 18 -14 25 -14 8
0 14 -4 14 -9 0 -10 67 -53 88 -57 8 -1 22 -10 31 -18 10 -9 23 -16 30 -16 7
0 9 -4 6 -10 -3 -5 0 -10 8 -10 8 0 22 -9 31 -19 10 -11 32 -25 49 -32 18 -7
46 -23 62 -36 63 -49 121 -97 161 -134 12 -10 26 -19 30 -19 5 0 27 -16 49
-35 59 -50 59 -50 77 -57 23 -9 26 3 27 139 1 88 -3 133 -14 164 -9 24 -18 52
-20 61 -2 9 -9 26 -15 37 -6 12 -8 21 -6 21 6 0 -15 63 -38 113 -8 17 -22 56
-32 85 -10 28 -21 52 -24 52 -4 0 -7 6 -8 13 -1 6 -4 24 -8 40 -5 23 -3 27 14
27 21 0 52 -60 52 -100 0 -11 6 -19 13 -18 6 2 11 -3 9 -9 -1 -7 2 -13 7 -13
5 0 22 -26 37 -57 15 -32 36 -70 46 -85 10 -14 18 -33 18 -41 0 -9 6 -22 13
-29 21 -22 40 -71 44 -113 1 -22 10 -60 19 -84 19 -51 22 -72 30 -201 3 -52 7
-106 9 -120 2 -14 4 -32 4 -41 1 -19 77 -100 85 -91 3 3 6 -1 6 -9 0 -9 24
-37 53 -63 28 -27 50 -49 48 -50 -2 0 11 -17 30 -37 57 -60 94 -102 134 -154
20 -27 41 -52 45 -55 3 -3 11 -13 16 -22 5 -9 29 -38 54 -65 25 -26 56 -70 70
-97 14 -26 32 -53 40 -59 21 -17 70 -84 70 -96 0 -6 5 -11 10 -11 6 0 10 -7
10 -15 0 -8 8 -22 18 -32 11 -10 25 -33 33 -50 8 -18 19 -33 26 -33 7 0 18
-10 24 -22 7 -13 15 -25 18 -28 4 -3 15 -18 24 -33 10 -16 28 -40 40 -54 12
-13 22 -28 22 -31 0 -4 10 -23 23 -43 27 -44 27 -49 3 -49 -10 0 -25 10 -34
22 -8 13 -24 34 -36 48 -44 50 -56 66 -81 103 -14 20 -28 37 -32 37 -5 0 -8 7
-8 15 0 8 -4 15 -10 15 -5 0 -10 5 -10 10 0 6 -13 24 -30 42 -16 17 -30 37
-30 45 0 8 -4 11 -10 8 -5 -3 -10 2 -10 11 0 10 -3 15 -6 11 -3 -3 -20 10 -37
28 -50 54 -56 62 -50 69 4 3 0 6 -7 6 -14 0 -43 30 -125 125 -27 32 -59 65
-69 74 -10 9 -28 27 -40 41 -20 24 -140 143 -166 166 -7 6 -25 23 -39 37 -114
114 -170 165 -175 160 -3 -4 -6 -1 -6 5 0 13 -37 51 -78 80 -16 12 -51 42 -78
67 -77 72 -93 85 -104 85 -5 0 -10 4 -10 8 0 4 -15 16 -32 27 -18 10 -46 32
-63 47 -16 16 -56 45 -88 63 -32 19 -68 46 -80 59 -13 14 -36 28 -53 32 -16 4
-65 28 -109 53 -44 26 -91 52 -105 59 -14 7 -47 25 -75 41 -27 16 -63 36 -80
44 -16 8 -39 23 -51 33 -11 11 -29 24 -40 30 -10 6 -35 19 -54 30 -19 10 -52
36 -73 57 -21 20 -42 37 -46 37 -5 0 -23 14 -41 30 -18 17 -35 30 -39 30 -3 0
-15 14 -26 30 -11 16 -24 30 -29 30 -5 0 -18 11 -30 24 -11 13 -57 62 -101
110 -44 48 -84 95 -89 104 -10 21 -66 72 -77 72 -5 0 -9 6 -9 14 0 7 -13 29
-30 47 -16 19 -30 39 -30 46 0 7 -18 31 -41 54 -37 37 -59 75 -59 100 0 20 33
8 65 -25z m5884 -1303 c7 -14 7 -23 1 -23 -6 0 -10 -7 -10 -15 0 -8 -7 -15
-16 -15 -9 0 -18 -9 -21 -20 -3 -11 -12 -20 -20 -20 -8 0 -11 -4 -8 -10 3 -5
2 -10 -3 -10 -5 0 -26 -24 -48 -54 -21 -30 -53 -62 -70 -71 -18 -9 -47 -31
-66 -49 -19 -17 -50 -45 -69 -62 -19 -18 -39 -38 -46 -45 -17 -19 -41 -39 -48
-39 -8 0 -109 -72 -117 -84 -4 -6 -8 -7 -8 -3 0 5 -7 1 -16 -7 -8 -9 -22 -16
-30 -16 -7 0 -39 -17 -69 -37 -31 -21 -59 -36 -62 -35 -3 2 -9 0 -12 -5 -3 -5
-24 -14 -47 -21 -22 -6 -51 -21 -64 -32 -20 -18 -42 -25 -54 -17 -2 1 -13 -7
-25 -17 -12 -11 -21 -15 -21 -10 0 5 -7 0 -16 -11 -8 -11 -17 -18 -20 -16 -8
5 -64 -21 -64 -30 0 -5 -4 -9 -9 -9 -13 0 -111 -60 -136 -83 -11 -11 -45 -36
-75 -57 -30 -21 -66 -50 -79 -64 -14 -14 -28 -26 -33 -26 -16 0 -530 -506
-573 -562 -32 -45 -65 -51 -65 -13 0 15 18 45 48 78 26 30 67 79 92 111 25 31
58 71 73 89 16 18 47 57 69 87 23 30 126 138 230 240 l190 186 18 74 c11 41
26 93 34 115 8 22 15 50 16 61 0 30 47 134 60 134 6 0 19 19 29 43 10 23 28
51 40 61 11 11 21 25 21 33 0 22 27 15 33 -9 7 -28 -15 -117 -31 -127 -13 -8
-47 -88 -88 -205 -32 -93 -21 -109 38 -57 31 27 66 47 218 128 36 19 74 43 85
53 11 10 49 33 85 52 36 19 104 55 151 81 47 26 88 44 91 42 3 -3 17 6 32 20
15 14 31 23 35 20 5 -2 20 6 35 20 14 13 26 22 26 20 0 -3 19 9 43 26 23 16
69 48 102 69 91 60 175 132 175 150 0 8 21 16 47 16 6 1 16 -10 22 -23z"/>
<path d="M7170 3145 c-16 -19 0 -19 26 0 16 12 16 14 3 15 -9 0 -22 -7 -29
-15z"/>
<path d="M7038 3053 c7 -3 16 -2 19 1 4 3 -2 6 -13 5 -11 0 -14 -3 -6 -6z"/>
<path d="M6890 2993 c-14 -10 -36 -23 -50 -30 l-25 -11 27 -1 c18 -1 32 6 40
19 7 11 18 20 25 20 7 0 13 5 13 10 0 13 -1 13 -30 -7z"/>
</g>
</svg>
