<?xml version="1.0" encoding="UTF-8"?>
<svg version="1.1" xmlns="http://www.w3.org/2000/svg" width="1200" height="220">
<path d="M0 0 C1.62327461 -0.01919243 1.62327461 -0.01919243 3.27934265 -0.03877258 C5.04525002 -0.03673325 5.04525002 -0.03673325 6.84683228 -0.03465271 C8.09452896 -0.04472855 9.34222565 -0.05480438 10.62773132 -0.06518555 C14.04325339 -0.08878092 17.45822831 -0.09871683 20.87379408 -0.10063291 C23.00981574 -0.10276833 25.1457804 -0.10917862 27.28178787 -0.11712456 C34.73986694 -0.14486158 42.19778537 -0.15713214 49.65591431 -0.1547699 C56.59815458 -0.15296792 63.53969522 -0.18462043 70.48175848 -0.23200089 C76.45053012 -0.2712807 82.41907358 -0.2873194 88.38797343 -0.28540367 C91.94921082 -0.28464025 95.50982614 -0.29310617 99.0709343 -0.32493782 C103.04468657 -0.35948988 107.01748566 -0.34570918 110.99136353 -0.32762146 C112.7511982 -0.35290924 112.7511982 -0.35290924 114.54658508 -0.37870789 C119.71394103 -0.31893413 123.55060241 -0.20273939 127.70831299 3.07168579 C133.43171959 9.06122667 132.83683621 15.98601619 132.80728149 23.80323792 C132.81253845 25.51406807 132.81253845 25.51406807 132.81790161 27.25946045 C132.82669344 31.0241965 132.82087823 34.78874414 132.81411743 38.55348206 C132.8154649 41.17372677 132.81740612 43.79397123 132.81991577 46.41421509 C132.82354974 51.90426162 132.81877184 57.39425426 132.80923462 62.8842926 C132.79835656 69.21907371 132.80187318 75.553726 132.81288743 81.88850397 C132.82308023 87.99673723 132.82197158 94.10491369 132.81612396 100.21315193 C132.81479099 102.80586833 132.81642283 105.39858803 132.82108307 107.99130058 C132.82617017 111.61750326 132.81840677 115.24345978 132.80728149 118.86964417 C132.81132996 119.93843811 132.81537842 121.00723206 132.81954956 122.1084137 C132.7478942 134.73555898 132.7478942 134.73555898 129.11099243 139.14332581 C124.34519128 142.59853164 122.30605811 143.52278695 116.44082642 143.41603088 C115.15445786 143.3972438 113.86808929 143.37845673 112.54273987 143.35910034 C111.85164564 143.34794001 111.16055141 143.33677967 110.44851494 143.32528114 C105.98526608 143.26392169 101.52149583 143.26395655 97.05789089 143.25267506 C93.15303934 143.23934155 89.25065194 143.20520296 85.34658813 143.12355042 C61.83612032 142.2316007 61.83612032 142.2316007 41.80728149 153.25636292 C41.27983841 153.77582489 40.75239532 154.29528687 40.20896912 154.83049011 C37.32030565 157.56288262 34.07217811 159.81686179 30.86099243 162.15113831 C30.03608055 162.79299324 30.03608055 162.79299324 29.19450378 163.44781494 C25.54923712 166.1618292 23.0720245 166.95747314 18.54849243 166.40113831 C17.54849243 165.40113831 17.54849243 165.40113831 17.43496704 163.26808167 C17.44020386 162.35163879 17.44544067 161.43519592 17.45083618 160.49098206 C17.45405884 159.50162659 17.45728149 158.51227112 17.46060181 157.49293518 C17.46898071 156.45201721 17.47735962 155.41109924 17.48599243 154.33863831 C17.49050415 153.29385315 17.49501587 152.24906799 17.49966431 151.17262268 C17.51149331 148.58207171 17.52797554 145.99163272 17.54849243 143.40113831 C16.59595581 143.42470398 16.59595581 143.42470398 15.62417603 143.44874573 C12.72404013 143.51142421 9.82404719 143.55023247 6.92349243 143.58863831 C5.92446899 143.61377502 4.92544556 143.63891174 3.89614868 143.66481018 C-5.87192948 143.76184407 -5.87192948 143.76184407 -10.45150757 140.40113831 C-15.41993799 134.8805016 -15.02017719 129.52037608 -14.96908569 122.34059143 C-14.97609497 121.13015671 -14.98310425 119.91972198 -14.99032593 118.67260742 C-15.00488456 115.36446026 -15.00151549 112.05731775 -14.98880959 108.74922752 C-14.97865317 105.2806861 -14.98808257 101.81218638 -14.99435425 98.34364319 C-15.00162302 92.51979401 -14.99206337 86.69614801 -14.97299194 80.87232971 C-14.95122444 74.14773351 -14.95827637 67.42362248 -14.98029757 60.69903803 C-14.99847372 54.91623879 -15.00099915 49.13358525 -14.99054289 43.35076666 C-14.98432003 39.9009694 -14.98343872 36.45139988 -14.99668884 33.00161743 C-15.01043303 29.15478284 -14.99136141 25.30848779 -14.96908569 21.46168518 C-14.97718262 20.32384079 -14.98527954 19.1859964 -14.99362183 18.01367188 C-14.92933391 12.02137768 -14.74490633 7.98369043 -10.45150757 3.40113831 C-6.84798417 0.85396327 -4.39632911 0.02357395 0 0 Z M-6.45150757 12.40113831 C-7.04914925 14.77049052 -7.04914925 14.77049052 -6.96617126 17.37294006 C-6.97889572 18.37394241 -6.99162018 19.37494476 -7.00473022 20.40628052 C-6.99820435 21.49835312 -6.99167847 22.59042572 -6.98495483 23.71559143 C-6.9935704 24.87042526 -7.00218597 26.02525909 -7.01106262 27.21508789 C-7.03379155 31.03774843 -7.02697082 34.85968005 -7.01791382 38.68238831 C-7.02182404 40.66483751 -7.02574428 42.64728709 -7.03121322 44.62973261 C-7.04821019 50.86172353 -7.04464817 57.09346958 -7.02792358 63.32545471 C-7.01099558 69.75361885 -7.02684562 76.18110426 -7.05914646 82.60919428 C-7.08583842 88.13036195 -7.09311975 93.65131829 -7.08463138 99.172544 C-7.07970161 102.46926185 -7.0840174 105.76548057 -7.1024189 109.06216431 C-7.11978864 112.7375118 -7.10538302 116.41139723 -7.08261108 120.08668518 C-7.09430328 121.17875778 -7.10599548 122.27083038 -7.11804199 123.39599609 C-7.15198376 129.26443398 -7.15198376 129.26443398 -4.12539673 134.07417297 C-0.6715256 135.78821831 1.96599114 135.94710536 5.81802368 136.01051331 C6.49902634 136.02704956 7.18002899 136.04358582 7.88166809 136.06062317 C10.04153614 136.10893134 12.20070118 136.13043341 14.36099243 136.15113831 C15.8317306 136.17931275 17.30243626 136.20924225 18.77310181 136.24098206 C22.36474657 136.31468226 25.95625815 136.36436316 29.54849243 136.40113831 C29.54849243 138.38113831 29.54849243 140.36113831 29.54849243 142.40113831 C28.22849243 142.73113831 26.90849243 143.06113831 25.54849243 143.40113831 C25.54849243 147.03113831 25.54849243 150.66113831 25.54849243 154.40113831 C26.68286743 153.65863831 27.81724243 152.91613831 28.98599243 152.15113831 C29.83645142 151.61311584 30.6869104 151.07509338 31.56314087 150.52076721 C33.8589631 148.89071089 35.62537948 147.39662244 37.60415649 145.44947815 C50.82431716 133.30339067 66.72802948 134.85301818 83.54129028 135.23017883 C88.19013208 135.32228476 92.83976988 135.33647925 97.48939037 135.35603523 C101.09918902 135.37170128 104.70698837 135.40055425 108.31614685 135.47239685 C109.60236435 135.49125946 110.88858185 135.51012207 112.21377563 135.52955627 C113.34386551 135.55242706 114.47395538 135.57529785 115.63829041 135.59886169 C118.5404441 135.40168512 120.14970069 135.00885434 122.54849243 133.40113831 C123.7717526 130.95461798 123.6823652 129.36099471 123.69566345 126.62515259 C123.70281876 125.61704025 123.70997406 124.60892792 123.71734619 123.57026672 C123.7200351 122.46008179 123.722724 121.34989685 123.72549438 120.20606995 C123.73535118 118.45721748 123.73535118 118.45721748 123.7454071 116.67303467 C123.76517101 112.80245405 123.77680783 108.93191222 123.78677368 105.06129456 C123.79084921 103.74296568 123.79492474 102.4246368 123.79912376 101.06635857 C123.81817271 94.81237102 123.83240611 88.55839528 123.84073573 82.30438429 C123.85051697 75.07948166 123.87686035 67.85488469 123.91723663 60.63008982 C123.94736107 55.04872977 123.96220097 49.46745754 123.96551675 43.88601774 C123.96787092 40.55075746 123.97883819 37.21589938 124.00197792 33.88070869 C124.02618002 30.16208806 124.02543899 26.44427553 124.01846313 22.7256012 C124.03127319 21.61744049 124.04408325 20.50927979 124.05728149 19.36753845 C124.05033768 18.35660629 124.04339386 17.34567413 124.03623962 16.30410767 C124.03982215 14.98477029 124.03982215 14.98477029 124.04347706 13.63877964 C123.72417038 11.27431611 123.72417038 11.27431611 121.83586407 9.61893272 C119.15771417 8.19308834 117.48727148 8.02170843 114.46279907 8.01345825 C113.43655426 8.00355362 112.41030945 7.99364899 111.35296631 7.98344421 C110.23284149 7.98794586 109.11271667 7.99244751 107.95864868 7.99708557 C106.77455414 7.99022232 105.59045959 7.98335907 104.3704834 7.97628784 C101.12664026 7.96112418 97.88315731 7.95952525 94.63929367 7.96523023 C91.93044239 7.96832108 89.22164314 7.96223091 86.51279926 7.95619148 C80.12263471 7.94214693 73.73260385 7.94370729 67.34243774 7.95509338 C60.75077642 7.96657898 54.15952175 7.95249179 47.56791401 7.92569691 C41.90664206 7.90354581 36.24549782 7.89690102 30.5841856 7.90277332 C27.20370939 7.90614506 23.82349395 7.90371373 20.4430542 7.88652229 C16.67450458 7.8716894 12.90685705 7.88223368 9.13833618 7.89942932 C8.01821136 7.88976135 6.89808655 7.88009338 5.74401855 7.87013245 C4.20465134 7.88488365 4.20465134 7.88488365 2.63418579 7.89993286 C1.29800453 7.90024679 1.29800453 7.90024679 -0.06517029 7.90056705 C-3.30306377 8.57976542 -4.47920705 9.77869294 -6.45150757 12.40113831 Z " fill="#000000" transform="translate(856.4515075683594,27.598861694335938)"/>
<path d="M0 0 C6.93 0 13.86 0 21 0 C24.82180346 19.25600974 27.91622522 38.61516925 31 58 C33.5985294 44.8447998 35.60095579 31.62995271 37.52587891 18.36181641 C37.91291178 15.70173332 38.30397201 13.04226468 38.6953125 10.3828125 C38.87031784 9.16115891 38.87031784 9.16115891 39.04885864 7.91482544 C39.8871029 2.22579419 39.8871029 2.22579419 41 0 C47.93 0 54.86 0 62 0 C62 30.69 62 61.38 62 93 C57.05 93 52.1 93 47 93 C46.67 76.83 46.34 60.66 46 44 C43.73758345 59.37713554 43.73758345 59.37713554 41.48266602 74.75537109 C41.19835209 76.67810023 40.91378312 78.60079169 40.62890625 80.5234375 C40.48287964 81.52802002 40.33685303 82.53260254 40.18640137 83.56762695 C40.04440308 84.52161377 39.90240479 85.47560059 39.75610352 86.45849609 C39.57290306 87.70425919 39.57290306 87.70425919 39.38600159 88.97518921 C39 91 39 91 38 93 C33.05 93 28.1 93 23 93 C20.03 75.18 17.06 57.36 14 39 C13.67 56.82 13.34 74.64 13 93 C8.71 93 4.42 93 0 93 C0 62.31 0 31.62 0 0 Z " fill="#000000" transform="translate(433,65)"/>
<path d="M0 0 C5.28 0 10.56 0 16 0 C16.26478149 2.55077271 16.26478149 2.55077271 16.53491211 5.15307617 C17.11968858 10.78111206 17.70665173 16.40891702 18.2950964 22.03657055 C18.6516742 25.44751033 19.00738264 28.85853604 19.36108398 32.26977539 C19.76806057 36.19444723 20.178855 40.11871495 20.58984375 44.04296875 C20.71592514 45.26396774 20.84200653 46.48496674 20.97190857 47.7429657 C21.09195755 48.8837709 21.21200653 50.02457611 21.33569336 51.19995117 C21.4400621 52.20144699 21.54443085 53.20294281 21.65196228 54.23478699 C21.98003062 56.84134025 22.48477978 59.4238989 23 62 C24.98 41.54 26.96 21.08 29 0 C34.28 0 39.56 0 45 0 C47.97 30.69 47.97 30.69 51 62 C52.23358386 53.364913 53.41108489 44.79930401 54.2890625 36.1328125 C54.39721283 35.08721161 54.50536316 34.04161072 54.61679077 32.96432495 C54.95541974 29.68480743 55.29028477 26.40491903 55.625 23.125 C55.85651965 20.87627621 56.08828852 18.62757806 56.3203125 16.37890625 C56.88308117 10.91956215 57.44247904 5.4598824 58 0 C62.62 0 67.24 0 72 0 C71.36285042 10.63203131 70.40143753 21.17016002 69.1875 31.75 C69.01169265 33.303599 68.83616125 34.85722925 68.66088867 36.41088867 C68.2965127 39.63468018 67.92994508 42.85821134 67.56152344 46.08154297 C67.09109696 50.19751868 66.6246033 54.31392773 66.15953064 58.43051147 C65.71187818 62.39132856 65.26225018 66.35192066 64.8125 70.3125 C64.72809662 71.05729614 64.64369324 71.80209229 64.55673218 72.56945801 C64.31625308 74.68835812 64.07436292 76.80709231 63.83203125 78.92578125 C63.69514893 80.12630127 63.5582666 81.32682129 63.41723633 82.5637207 C62.99407295 86.04881403 62.49648651 89.52459443 62 93 C55.07 93 48.14 93 41 93 C39.68 81.12 38.36 69.24 37 57 C36.67 57 36.34 57 36 57 C34.68 68.88 33.36 80.76 32 93 C26.8334375 93.0309375 26.8334375 93.0309375 21.5625 93.0625 C20.47525635 93.071604 19.3880127 93.08070801 18.26782227 93.09008789 C16.99249634 93.09383423 16.99249634 93.09383423 15.69140625 93.09765625 C14.81685791 93.10289307 13.94230957 93.10812988 13.04125977 93.11352539 C11 93 11 93 10 92 C9.60541261 89.25399168 9.26935314 86.52096655 8.96850586 83.76416016 C8.87082413 82.90076523 8.7731424 82.0373703 8.67250061 81.14781189 C8.34902257 78.27868918 8.03185832 75.40890601 7.71484375 72.5390625 C7.4924048 70.55223916 7.26962735 68.56545369 7.04652405 66.57870483 C6.57903668 62.40758152 6.11444931 58.236149 5.65209961 54.06445312 C5.05877447 48.71152022 4.46020392 43.35919117 3.85970211 38.0070591 C3.39932342 33.90149683 2.9407751 29.79573193 2.48288155 25.68989182 C2.26273538 23.71624285 2.04224019 21.74263279 1.82139397 19.76906204 C1.51324363 17.01110536 1.20732567 14.25291056 0.90209961 11.49462891 C0.81016327 10.67477005 0.71822693 9.85491119 0.62350464 9.01020813 C0.29114944 5.98978881 0 3.04130755 0 0 Z " fill="#000000" transform="translate(604,65)"/>
<path d="M0 0 C6.27 0 12.54 0 19 0 C22.375 9 22.375 9 23.25854492 12.39648438 C23.46120972 13.16702148 23.66387451 13.93755859 23.87268066 14.73144531 C24.07325073 15.51100586 24.2738208 16.29056641 24.48046875 17.09375 C24.77080994 18.20218262 24.77080994 18.20218262 25.0670166 19.33300781 C25.7784738 22.05413236 26.48257336 24.77717636 27.1875 27.5 C28.775625 33.605 30.36375 39.71 32 46 C32.33 30.82 32.66 15.64 33 0 C37.62 0 42.24 0 47 0 C47 30.69 47 61.38 47 93 C41.72 93 36.44 93 31 93 C25.5470239 73.363485 20.22788823 53.697936 15 34 C14.67 53.47 14.34 72.94 14 93 C9.38 93 4.76 93 0 93 C0 62.31 0 31.62 0 0 Z " fill="#000000" transform="translate(277,65)"/>
<path d="M0 0 C31 0 31 0 39 4 C44.90581903 10.52748419 45.24456504 18.68974278 44.9375 27.125 C44.46526729 32.54977323 43.4148197 36.16123602 40.05859375 40.44921875 C38.71810569 42.10001906 38.71810569 42.10001906 39 45 C40.20645112 46.42869211 41.41736064 47.85671856 42.7109375 49.20703125 C46.55072085 54.54782082 46.33587809 60.58161948 46.3125 66.875 C46.32861328 67.73480469 46.34472656 68.59460938 46.36132812 69.48046875 C46.36667449 76.52697446 45.26838856 82.1645143 40.75 87.8125 C28.52547785 97.53655171 16.63407921 93 0 93 C0 62.31 0 31.62 0 0 Z M15 14 C15 21.92 15 29.84 15 38 C24.51920834 38.11402945 24.51920834 38.11402945 28 34 C29.4097034 31.1805932 29.16984647 28.76732774 29.1875 25.625 C29.20167969 24.48289062 29.21585938 23.34078125 29.23046875 22.1640625 C29.01013232 19.13910468 28.67961707 17.48701195 27 15 C23.88196601 13.25464401 23.88196601 13.25464401 15 14 Z M15 52 C15 60.91 15 69.82 15 79 C18.96 79 22.92 79 27 79 C30.67326362 75.32673638 30.40930902 74.11767392 30.45898438 69.2265625 C30.45189453 68.36804688 30.44480469 67.50953125 30.4375 66.625 C30.45748047 65.77421875 30.47746094 64.9234375 30.49804688 64.046875 C30.49504951 60.19826454 30.19833391 57.45911699 28.66015625 53.8984375 C25.05239505 50.9350186 25.05239505 50.9350186 15 52 Z " fill="#000000" transform="translate(732,65)"/>
<path d="M0 0 C4.58626018 3.67808985 7.00399141 7.56830273 8.578125 13.265625 C8.83882141 16.32504272 8.83882141 16.32504272 8.8527832 19.60302734 C8.86708122 21.45557632 8.86708122 21.45557632 8.88166809 23.34555054 C8.8814066 24.68088815 8.88046927 26.01622578 8.87890625 27.3515625 C8.88279885 28.7362989 8.88713467 30.12103412 8.89189148 31.50576782 C8.8993333 34.40232215 8.89907757 37.29875456 8.89379883 40.1953125 C8.88801083 43.88937248 8.90492836 47.58292997 8.9281435 51.27690697 C8.94294653 54.13555776 8.94374361 56.99408942 8.94063377 59.85277176 C8.94139016 61.87113914 8.95521055 63.88948815 8.96931458 65.9078064 C8.9315845 73.42704103 8.88765146 80.20322049 3.9296875 86.2890625 C3.35992188 86.73507813 2.79015625 87.18109375 2.203125 87.640625 C1.63851562 88.10210937 1.07390625 88.56359375 0.4921875 89.0390625 C-6.27009041 93.37244059 -13.69120495 92.92285518 -21.421875 92.265625 C-27.38612915 90.67756338 -31.05059416 87.32254626 -34.421875 82.265625 C-37.0685568 75.5181235 -36.72778646 68.68552482 -36.72265625 61.51953125 C-36.72655048 60.18106454 -36.73088663 58.84259906 -36.73564148 57.50413513 C-36.7430742 54.70771263 -36.74283382 51.91141644 -36.73754883 49.11499023 C-36.73175568 45.54986761 -36.74869521 41.98526478 -36.7718935 38.420228 C-36.78669856 35.6585137 -36.78749345 32.89692267 -36.78438377 30.1351757 C-36.78513949 28.18771446 -36.79895408 26.24027221 -36.81306458 24.29286194 C-36.77076546 16.15689819 -36.14227214 9.66825109 -31.171875 2.953125 C-23.39097259 -4.65093872 -9.35306244 -5.77449942 0 0 Z M-19.296875 12.390625 C-22.52872322 17.77703869 -21.58320673 25.24744369 -21.58984375 31.32421875 C-21.59317215 32.38673355 -21.59650055 33.44924835 -21.59992981 34.54396057 C-21.60498045 36.78556894 -21.60733871 39.02718478 -21.60717773 41.26879883 C-21.60936519 44.6877892 -21.6275436 48.10645723 -21.64648438 51.52539062 C-21.64941853 53.70833224 -21.65140318 55.89127537 -21.65234375 58.07421875 C-21.65952927 59.09108261 -21.66671478 60.10794647 -21.67411804 61.15562439 C-21.81362753 70.46671154 -21.81362753 70.46671154 -17.421875 78.265625 C-12.71671475 78.78808055 -12.71671475 78.78808055 -8.546875 76.953125 C-6.3642593 73.67920145 -6.28800644 70.77018971 -6.26074219 66.95556641 C-6.25113464 65.8707901 -6.2415271 64.78601379 -6.23162842 63.66836548 C-6.2252536 61.91053238 -6.2252536 61.91053238 -6.21875 60.1171875 C-6.21304993 58.91250824 -6.20734985 57.70782898 -6.20147705 56.46664429 C-6.19202495 53.91624836 -6.18549224 51.36584022 -6.18164062 48.81542969 C-6.17193116 44.91319502 -6.14090721 41.0114861 -6.109375 37.109375 C-6.10284535 34.63281563 -6.09759473 32.15625249 -6.09375 29.6796875 C-6.0814032 28.51184723 -6.0690564 27.34400696 -6.05633545 26.14077759 C-6.05933655 25.04969696 -6.06233765 23.95861633 -6.06542969 22.83447266 C-6.06178406 21.87755524 -6.05813843 20.92063782 -6.05438232 19.9347229 C-6.5332103 16.45699714 -7.92405093 13.76344907 -10.421875 11.265625 C-15.05847965 10.82753513 -15.05847965 10.82753513 -19.296875 12.390625 Z " fill="#000000" transform="translate(540.421875,66.734375)"/>
<path d="M0 0 C0.69931641 -0.020625 1.39863281 -0.04125 2.11914062 -0.0625 C7.7942244 -0.10497022 11.71198471 1.11301672 16.015625 4.828125 C21.99988632 11.86456413 22.43391674 18.25578882 22.1875 27.25 C17.2375 27.25 12.2875 27.25 7.1875 27.25 C7.02473958 25.00390625 6.86197917 22.7578125 6.69921875 20.51171875 C6.09354579 17.83473672 5.37390754 16.876853 3.1875 15.25 C0.14538569 14.8332448 0.14538569 14.8332448 -2.8125 15.25 C-5.3291238 17.7666238 -5.19443779 18.81490708 -5.3125 22.3125 C-5.10441902 30.31321374 -1.60943732 34.58679602 4.046875 39.97265625 C5.6158403 41.40266804 7.19541201 42.81953371 8.78198242 44.22998047 C16.59563196 51.2072842 21.58969716 58.01824626 22.46875 68.65234375 C22.66731462 76.40463732 22.82517655 83.36981168 17.3125 89.25 C10.62017692 95.35182398 4.90751471 95.68469506 -3.83984375 95.53125 C-10.1459773 95.08479807 -13.66971278 93.39278722 -18.1875 88.875 C-21.5023035 83.52031742 -22.09351343 78.56753311 -21.9375 72.375 C-21.92847656 71.68664062 -21.91945313 70.99828125 -21.91015625 70.2890625 C-21.88682513 68.60922162 -21.85096326 66.92956254 -21.8125 65.25 C-17.1925 65.25 -12.5725 65.25 -7.8125 65.25 C-7.35677083 68.5703125 -6.90104167 71.890625 -6.4453125 75.2109375 C-6.0822415 78.34566659 -6.0822415 78.34566659 -3.8125 80.25 C0.24011287 80.59490322 1.73504176 80.55163882 5.1875 78.25 C6.77336335 73.60568591 5.9777993 70.0063049 4.32421875 65.546875 C1.51697628 59.87450878 -3.10887473 55.78568462 -7.875 51.75 C-15.4729476 45.23957294 -21.06236933 37.17817312 -22.16015625 27.0390625 C-22.36244547 19.49279494 -22.21383911 12.00564527 -16.9375 6.1796875 C-11.40998691 1.16021789 -7.42852775 0.05387871 0 0 Z " fill="#000000" transform="translate(577.8125,63.75)"/>
<path d="M0 0 C0.69931641 -0.020625 1.39863281 -0.04125 2.11914062 -0.0625 C7.7942244 -0.10497022 11.71198471 1.11301672 16.015625 4.828125 C21.99988632 11.86456413 22.43391674 18.25578882 22.1875 27.25 C17.2375 27.25 12.2875 27.25 7.1875 27.25 C7.02473958 25.00390625 6.86197917 22.7578125 6.69921875 20.51171875 C6.09354579 17.83473672 5.37390754 16.876853 3.1875 15.25 C0.14538569 14.8332448 0.14538569 14.8332448 -2.8125 15.25 C-5.3291238 17.7666238 -5.19443779 18.81490708 -5.3125 22.3125 C-5.10441902 30.31321374 -1.60943732 34.58679602 4.046875 39.97265625 C5.6158403 41.40266804 7.19541201 42.81953371 8.78198242 44.22998047 C16.59563196 51.2072842 21.58969716 58.01824626 22.46875 68.65234375 C22.66731462 76.40463732 22.82517655 83.36981168 17.3125 89.25 C10.62017692 95.35182398 4.90751471 95.68469506 -3.83984375 95.53125 C-10.1459773 95.08479807 -13.66971278 93.39278722 -18.1875 88.875 C-21.5023035 83.52031742 -22.09351343 78.56753311 -21.9375 72.375 C-21.92847656 71.68664062 -21.91945313 70.99828125 -21.91015625 70.2890625 C-21.88682513 68.60922162 -21.85096326 66.92956254 -21.8125 65.25 C-17.1925 65.25 -12.5725 65.25 -7.8125 65.25 C-7.35677083 68.5703125 -6.90104167 71.890625 -6.4453125 75.2109375 C-6.0822415 78.34566659 -6.0822415 78.34566659 -3.8125 80.25 C0.24011287 80.59490322 1.73504176 80.55163882 5.1875 78.25 C6.77336335 73.60568591 5.9777993 70.0063049 4.32421875 65.546875 C1.51697628 59.87450878 -3.10887473 55.78568462 -7.875 51.75 C-15.4729476 45.23957294 -21.06236933 37.17817312 -22.16015625 27.0390625 C-22.36244547 19.49279494 -22.21383911 12.00564527 -16.9375 6.1796875 C-11.40998691 1.16021789 -7.42852775 0.05387871 0 0 Z " fill="#000000" transform="translate(353.8125,63.75)"/>
<path d="M0 0 C32.52475248 0 32.52475248 0 37.828125 4.578125 C38.29734375 5.12984375 38.7665625 5.6815625 39.25 6.25 C39.72953125 6.79140625 40.2090625 7.3328125 40.703125 7.890625 C44.6941939 14.3821226 44.33524864 21.49534262 44.3125 28.875 C44.32861328 29.91269531 44.34472656 30.95039062 44.36132812 32.01953125 C44.366013 39.44973882 43.90986311 46.43307102 39.0625 52.375 C38.381875 52.91125 37.70125 53.4475 37 54 C36.319375 54.556875 35.63875 55.11375 34.9375 55.6875 C28.62281313 59.96519111 23.60885546 58 15 58 C15 69.55 15 81.1 15 93 C10.05 93 5.1 93 0 93 C0 62.31 0 31.62 0 0 Z M15 14 C15 23.9 15 33.8 15 44 C18.3 44 21.6 44 25 44 C28.4144987 40.5855013 28.38253555 40.12408704 28.3984375 35.5625 C28.40230469 34.50289062 28.40617187 33.44328125 28.41015625 32.3515625 C28.39855469 31.24554688 28.38695312 30.13953125 28.375 29 C28.38660156 27.89398438 28.39820313 26.78796875 28.41015625 25.6484375 C28.40628906 24.58882812 28.40242188 23.52921875 28.3984375 22.4375 C28.39505371 21.46683594 28.39166992 20.49617188 28.38818359 19.49609375 C28.18904291 16.59899548 28.18904291 16.59899548 25 14 C21.7 14 18.4 14 15 14 Z " fill="#000000" transform="translate(178,65)"/>
<path d="M0 0 C13.53 0 27.06 0 41 0 C41 4.62 41 9.24 41 14 C32.42 14 23.84 14 15 14 C15 22.25 15 30.5 15 39 C21.93 39 28.86 39 36 39 C36 43.62 36 48.24 36 53 C29.07 53 22.14 53 15 53 C15 61.58 15 70.16 15 79 C23.58 79 32.16 79 41 79 C41 83.62 41 88.24 41 93 C27.47 93 13.94 93 0 93 C0 62.31 0 31.62 0 0 Z " fill="#000000" transform="translate(683,65)"/>
<path d="M0 0 C13.53 0 27.06 0 41 0 C41 4.62 41 9.24 41 14 C32.42 14 23.84 14 15 14 C15 22.25 15 30.5 15 39 C21.93 39 28.86 39 36 39 C36 43.62 36 48.24 36 53 C29.07 53 22.14 53 15 53 C15 61.58 15 70.16 15 79 C23.58 79 32.16 79 41 79 C41 83.62 41 88.24 41 93 C27.47 93 13.94 93 0 93 C0 62.31 0 31.62 0 0 Z " fill="#000000" transform="translate(384,65)"/>
<path d="M0 0 C13.53 0 27.06 0 41 0 C41 4.62 41 9.24 41 14 C32.42 14 23.84 14 15 14 C15 22.25 15 30.5 15 39 C21.93 39 28.86 39 36 39 C36 43.62 36 48.24 36 53 C29.07 53 22.14 53 15 53 C15 61.58 15 70.16 15 79 C23.58 79 32.16 79 41 79 C41 83.62 41 88.24 41 93 C27.47 93 13.94 93 0 93 C0 62.31 0 31.62 0 0 Z " fill="#000000" transform="translate(228,65)"/>
<path d="M0 0 C2.37570543 -0.0816082 4.74855841 -0.14077222 7.125 -0.1875 C7.79015625 -0.21263672 8.4553125 -0.23777344 9.140625 -0.26367188 C13.88432085 -0.33343211 16.97708474 0.51353343 21 3 C29.42165601 11.23025474 28.34905716 22.01161255 28.56640625 33.06445312 C28.59605469 34.14017578 28.62570312 35.21589844 28.65625 36.32421875 C28.68428711 37.7796106 28.68428711 37.7796106 28.71289062 39.2644043 C29.10642325 43.01400721 30.03698554 45.92142381 32.5625 48.75 C36.21429859 50.62271723 39.94574205 50.74877461 44 51 C44 53.64 44 56.28 44 59 C43.24074219 59.09796875 42.48148438 59.1959375 41.69921875 59.296875 C40.70535156 59.44640625 39.71148438 59.5959375 38.6875 59.75 C37.70136719 59.88921875 36.71523437 60.0284375 35.69921875 60.171875 C32.47834143 61.16004576 31.64974136 62.11695685 30 65 C28.96120238 68.11639286 28.84558771 70.39337876 28.7890625 73.6640625 C28.74652344 75.34822266 28.74652344 75.34822266 28.703125 77.06640625 C28.65155948 79.41521577 28.60714029 81.76419443 28.5703125 84.11328125 C28.34990534 92.16732629 27.36451715 98.8166235 23.375 105.875 C16.7614585 111.79237924 8.42051256 111.38469347 0 111 C0 108.03 0 105.06 0 102 C0.97582031 101.97421875 1.95164062 101.9484375 2.95703125 101.921875 C4.22933594 101.86515625 5.50164063 101.8084375 6.8125 101.75 C8.07707031 101.70359375 9.34164063 101.6571875 10.64453125 101.609375 C13.99738156 101.33482811 13.99738156 101.33482811 15.68212891 99.27880859 C17.22248884 96.61528143 17.39455963 94.99014655 17.44140625 91.9296875 C17.46783203 90.95 17.49425781 89.9703125 17.52148438 88.9609375 C17.53501953 87.94257813 17.54855469 86.92421875 17.5625 85.875 C17.92496985 65.14709429 17.92496985 65.14709429 24 58 C26.25 56.625 26.25 56.625 28 56 C28 55.34 28 54.68 28 54 C27.4225 53.773125 26.845 53.54625 26.25 53.3125 C22.68516281 51.23301164 20.65468594 48.98342723 19.33984375 45 C17.67985818 37.32717779 17.61763587 29.43893136 17.42895508 21.61743164 C17.4008374 20.69309326 17.37271973 19.76875488 17.34375 18.81640625 C17.31571289 17.57032593 17.31571289 17.57032593 17.28710938 16.29907227 C16.96945046 13.75536985 16.41405567 12.13618334 15 10 C11.83754459 8.9458482 9.13051782 8.68724328 5.8125 8.4375 C4.72582031 8.35371094 3.63914062 8.26992187 2.51953125 8.18359375 C1.68808594 8.12300781 0.85664062 8.06242187 0 8 C0 5.36 0 2.72 0 0 Z " fill="#000000" transform="translate(1017,56)"/>
<path d="M0 0 C1.03930664 0.01353516 1.03930664 0.01353516 2.09960938 0.02734375 C3.79572395 0.05073843 5.49165871 0.08660359 7.1875 0.125 C7.1875 2.765 7.1875 5.405 7.1875 8.125 C6.29546875 8.15078125 5.4034375 8.1765625 4.484375 8.203125 C3.31390625 8.25984375 2.1434375 8.3165625 0.9375 8.375 C-0.80273438 8.44460937 -0.80273438 8.44460937 -2.578125 8.515625 C-6.34686086 9.22567668 -7.54550143 10.08074477 -9.8125 13.125 C-10.83583362 16.25519695 -10.96174516 19.20505913 -11.0234375 22.484375 C-11.06597656 24.03511719 -11.06597656 24.03511719 -11.109375 25.6171875 C-11.16107967 27.77327205 -11.20546063 29.92954581 -11.2421875 32.0859375 C-11.49944757 40.72558818 -12.66543234 47.58134732 -18.8125 54.125 C-19.8025 54.62 -19.8025 54.62 -20.8125 55.125 C-20.07 55.57875 -19.3275 56.0325 -18.5625 56.5 C-13.2350289 61.58531332 -11.63349865 68.13925981 -11.2734375 75.359375 C-11.22628679 77.53092707 -11.19785537 79.70296078 -11.1875 81.875 C-11.34526752 91.24334373 -11.34526752 91.24334373 -8.8125 100.125 C-5.8509304 101.6057848 -2.97743705 101.47814037 0.3125 101.6875 C2.23449219 101.81318359 2.23449219 101.81318359 4.1953125 101.94140625 C5.18273437 102.00199219 6.17015625 102.06257813 7.1875 102.125 C7.1875 105.095 7.1875 108.065 7.1875 111.125 C-9.2955743 111.87803385 -9.2955743 111.87803385 -15.40625 106.80078125 C-21.23424917 100.34593334 -21.13388132 93.01319885 -21.3125 84.8125 C-20.99341446 72.97880004 -20.99341446 72.97880004 -25.22973633 62.42333984 C-27.38326413 60.65680262 -29.27277729 60.3979402 -32 59.9375 C-33.35158203 59.69966797 -33.35158203 59.69966797 -34.73046875 59.45703125 C-35.41753906 59.34746094 -36.10460937 59.23789063 -36.8125 59.125 C-36.8125 56.485 -36.8125 53.845 -36.8125 51.125 C-36.05324219 51.03863281 -35.29398437 50.95226562 -34.51171875 50.86328125 C-28.46598716 50.2073735 -28.46598716 50.2073735 -23.6875 46.875 C-21.22199357 39.12626552 -21.52007222 31.03271979 -21.3828125 22.97851562 C-21.15679306 15.43040806 -20.43839692 10.23461477 -15.4375 4.3125 C-10.54339805 0.23408171 -6.21439355 -0.15461649 0 0 Z " fill="#000000" transform="translate(139.8125,55.875)"/>
<path d="M0 0 C15.06855446 10.21936539 24.37860077 25.42336078 28.25 43.125 C31.30946602 62.67776922 27.65088936 81.27415893 17 98 C14.23407048 101.61302469 11.24346799 104.81670767 8 108 C7.41863281 108.65097656 6.83726563 109.30195313 6.23828125 109.97265625 C4.6875 111.6875 4.6875 111.6875 2 114 C-0.02734375 113.8359375 -0.02734375 113.8359375 -2 113 C-4.25 109.9375 -4.25 109.9375 -6 107 C-5.35933594 106.47792969 -4.71867187 105.95585937 -4.05859375 105.41796875 C7.50310977 95.5793209 16.37104056 81.40724137 18 66 C18.96152867 48.95003619 16.65145332 32.97727211 5.71875 19.10546875 C3.53378255 16.67651327 1.28621456 14.33322084 -1 12 C-2.70605905 10.02872992 -4.35193019 8.0202146 -6 6 C-4.02 4.02 -2.04 2.04 0 0 Z " fill="#000000" transform="translate(1084,54)"/>
<path d="M0 0 C1.98 1.65 3.96 3.3 6 5 C5.44014507 8.37348482 4.61343771 9.62336167 1.875 11.625 C-8.05782327 19.77032134 -14.86558918 33.44773027 -17 46 C-18.50464018 62.98549217 -17.07379912 80.94213788 -5.68603516 94.57275391 C-3.76418472 96.74220868 -1.80649527 98.86683535 0.21704102 100.94189453 C2.68174365 103.47185582 4.66087754 105.70669303 6 109 C4.35 110.65 2.7 112.3 1 114 C-11.26380578 108.2006298 -19.50767217 95.41996517 -24 83 C-24.391875 81.9275 -24.78375 80.855 -25.1875 79.75 C-31.12575624 60.94552192 -29.34233276 40.82422604 -20.4375 23.3125 C-15.41720402 14.03274193 -8.35108774 6.42507111 0 0 Z " fill="#000000" transform="translate(79,54)"/>
<path d="M0 0 C3.1537138 0.28777928 4.01797054 0.95338661 6.25585938 3.12963867 C7.21298828 4.04326172 7.21298828 4.04326172 8.18945312 4.9753418 C8.84042969 5.62051758 9.49140625 6.26569336 10.16210938 6.93041992 C10.81308594 7.55625977 11.4640625 8.18209961 12.13476562 8.8269043 C13.40637089 10.05355382 14.6684489 11.29017093 15.91992188 12.53735352 C17.00914494 13.60368091 18.12578853 14.64345919 19.27929688 15.63989258 C20.69335938 16.88745117 20.69335938 16.88745117 22.66210938 19.24291992 C22.6943912 22.32352812 22.191245 23.64056187 20.16601562 25.94604492 C19.52535156 26.45651367 18.8846875 26.96698242 18.22460938 27.49291992 C13.9956755 30.93984268 10.07535692 34.63010672 6.15429688 38.42260742 C3.23882755 40.55208815 1.25168871 41.09376843 -2.33789062 41.24291992 C-4.33789062 39.24291992 -4.33789062 39.24291992 -4.86132812 37.00463867 C-4.04853481 32.71624411 -1.18972814 30.80912409 2.03710938 28.05541992 C2.94203125 27.25587891 2.94203125 27.25587891 3.86523438 26.44018555 C4.98502771 25.45103477 6.11000387 24.46769865 7.24169922 23.4921875 C8.42253878 22.4536251 9.55013052 21.35489877 10.66210938 20.24291992 C9.91445313 19.56745117 9.16679688 18.89198242 8.39648438 18.19604492 C7.40164381 17.29505724 6.40685488 16.39401255 5.41210938 15.49291992 C4.43757812 14.61120117 3.46304688 13.72948242 2.45898438 12.82104492 C1.53601563 11.97026367 0.61304688 11.11948242 -0.33789062 10.24291992 C-1.12035156 9.53006836 -1.9028125 8.8172168 -2.70898438 8.08276367 C-3.24652344 7.47561523 -3.7840625 6.8684668 -4.33789062 6.24291992 C-3.93083358 0.40843561 -3.93083358 0.40843561 0 0 Z " fill="#000000" transform="translate(936.337890625,48.757080078125)"/>
<path d="M0 0 C0.66 1.65 1.32 3.3 2 5 C-1.8315929 9.6937013 -5.73063371 13.63054537 -10.4609375 17.421875 C-12.34909549 18.99056287 -12.34909549 18.99056287 -12 22 C-9.32729566 24.64296633 -6.55801478 27.08255317 -3.70898438 29.52929688 C-2.8340332 30.30176758 -2.8340332 30.30176758 -1.94140625 31.08984375 C-1.40201416 31.55253662 -0.86262207 32.01522949 -0.30688477 32.49194336 C1.29408934 34.33935921 1.76838977 35.57001528 2 38 C0 41 0 41 -2.26171875 41.50390625 C-6.09519729 40.7984587 -8.14569959 38.59654307 -10.8125 35.9375 C-11.86478158 34.92203199 -12.91817002 33.90770972 -13.97265625 32.89453125 C-14.4845752 32.39775879 -14.99649414 31.90098633 -15.52392578 31.38916016 C-18.09710628 28.96749343 -20.882474 26.79856693 -23.671875 24.6328125 C-25 23 -25 23 -25.390625 20.515625 C-24.92384072 17.50953427 -24.21926992 16.65602828 -22 14.625 C-21.36320313 14.03332031 -20.72640625 13.44164062 -20.0703125 12.83203125 C-19.38710938 12.22746094 -18.70390625 11.62289062 -18 11 C-17.31679688 10.38511719 -16.63359375 9.77023438 -15.9296875 9.13671875 C-13.97319733 7.3996828 -11.98935517 5.69915325 -10 4 C-9.113125 3.195625 -8.22625 2.39125 -7.3125 1.5625 C-4.63080201 -0.2494581 -3.1722538 -0.36254329 0 0 Z " fill="#000000" transform="translate(897,49)"/>
<path d="M0 0 C0.87100342 -0.00630432 1.74200684 -0.01260864 2.6394043 -0.019104 C3.57695557 -0.01505554 4.51450684 -0.01100708 5.48046875 -0.00683594 C6.44573486 -0.00874939 7.41100098 -0.01066284 8.40551758 -0.01263428 C10.44645447 -0.01399534 12.48740005 -0.01030439 14.52832031 -0.00195312 C17.65579641 0.00874742 20.78269806 -0.00185116 23.91015625 -0.01464844 C25.89192835 -0.01332683 27.8737001 -0.01076441 29.85546875 -0.00683594 C30.79302002 -0.0108844 31.73057129 -0.01493286 32.6965332 -0.019104 C34.00303833 -0.00964752 34.00303833 -0.00964752 35.3359375 0 C36.10188232 0.00159119 36.86782715 0.00318237 37.65698242 0.00482178 C39.66796875 0.25878906 39.66796875 0.25878906 42.66796875 2.25878906 C42.98046875 4.75878906 42.98046875 4.75878906 42.66796875 7.25878906 C40.21195041 9.7148074 39.53343715 9.51458557 36.15820312 9.53344727 C35.22383423 9.54297928 34.28946533 9.55251129 33.32678223 9.56233215 C32.31531128 9.56142075 31.30384033 9.56050934 30.26171875 9.55957031 C29.22607788 9.56385544 28.19043701 9.56814056 27.12341309 9.57255554 C24.93107841 9.57830539 22.73872465 9.57879431 20.54638672 9.57446289 C17.18163727 9.5713019 13.8177657 9.59475805 10.453125 9.62011719 C8.32682403 9.6223899 6.20052069 9.62309381 4.07421875 9.62207031 C3.0627478 9.63128006 2.05127686 9.64048981 1.00915527 9.64997864 C0.07478638 9.64374985 -0.85958252 9.63752106 -1.82226562 9.63110352 C-3.0589801 9.63204765 -3.0589801 9.63204765 -4.32067871 9.63301086 C-4.98442505 9.50951767 -5.64817139 9.38602448 -6.33203125 9.25878906 C-8.33203125 6.25878906 -8.33203125 6.25878906 -8.14453125 4.19628906 C-6.5299294 0.34608465 -3.74674067 0.00778354 0 0 Z " fill="#000000" transform="translate(901.33203125,121.7412109375)"/>
<path d="M0 0 C0.92087402 -0.00145523 1.84174805 -0.00291046 2.79052734 -0.00440979 C4.73733687 -0.00274992 6.6841594 0.00882119 8.63085938 0.02954102 C11.61384719 0.05848553 14.59505734 0.05015414 17.578125 0.03710938 C19.46875865 0.04334701 21.35938669 0.05173814 23.25 0.0625 C24.14380371 0.05956436 25.03760742 0.05662872 25.95849609 0.05360413 C27.20493896 0.07263039 27.20493896 0.07263039 28.4765625 0.09204102 C29.20697754 0.097444 29.93739258 0.10284698 30.68994141 0.1084137 C33.18744332 0.60877667 34.11060938 1.47673704 35.625 3.49609375 C35.4375 6.12109375 35.4375 6.12109375 34.625 8.49609375 C32.37251087 9.62233832 31.09105935 9.64506372 28.59008789 9.68896484 C27.75905045 9.70502777 26.928013 9.7210907 26.0717926 9.73764038 C22.27939654 9.78203713 18.48717493 9.82313233 14.69458008 9.84619141 C12.69153243 9.86277912 10.68854465 9.89010599 8.68579102 9.92822266 C5.80193301 9.98283668 2.91946086 10.00483844 0.03515625 10.01953125 C-1.3102549 10.05353531 -1.3102549 10.05353531 -2.68284607 10.08822632 C-5.02341557 10.08022968 -7.09916148 10.04404017 -9.375 9.49609375 C-11.46313477 6.96337891 -11.46313477 6.96337891 -12.375 4.49609375 C-9.82853592 -0.98927826 -5.29592954 -0.06656311 0 0 Z " fill="#000000" transform="translate(929.375,138.50390625)"/>
<path d="M0 0 C0.78375 0.04125 1.5675 0.0825 2.375 0.125 C6.40175357 7.44388349 10.40393384 14.77574228 14.375 22.125 C14.75688477 22.83092285 15.13876953 23.5368457 15.53222656 24.26416016 C16.4092973 25.89846163 17.26831682 27.54241997 18.125 29.1875 C18.57359375 30.04472656 19.0221875 30.90195313 19.484375 31.78515625 C20.49328681 34.43576228 20.6975311 36.31233905 20.375 39.125 C19.715 39.785 19.055 40.445 18.375 41.125 C15.93432617 41.02124023 15.93432617 41.02124023 13.375 40.125 C11.77856445 38.24633789 11.77856445 38.24633789 10.42578125 35.78515625 C9.92256348 34.88039551 9.4193457 33.97563477 8.90087891 33.04345703 C6.39228295 28.24541607 3.94071082 23.42657728 1.5625 18.5625 C0.59938713 16.60201332 -0.36536455 14.64233057 -1.33203125 12.68359375 C-1.7494458 11.83079834 -2.16686035 10.97800293 -2.59692383 10.09936523 C-3.47152292 8.17827813 -3.47152292 8.17827813 -4.625 7.125 C-4.8125 4.6875 -4.8125 4.6875 -4.625 2.125 C-2.625 0.125 -2.625 0.125 0 0 Z " fill="#000000" transform="translate(907.625,48.875)"/>
<path d="M0 0 C1.2219104 0.00136711 1.2219104 0.00136711 2.46850586 0.00276184 C3.30438232 -0.00152328 4.14025879 -0.00580841 5.00146484 -0.01022339 C6.77009169 -0.01597064 8.53874217 -0.01646404 10.30737305 -0.01213074 C13.02034596 -0.00896933 15.73223027 -0.03242911 18.44506836 -0.05778503 C20.16121281 -0.06005777 21.87736021 -0.06076164 23.59350586 -0.05973816 C24.40811279 -0.06894791 25.22271973 -0.07815765 26.06201172 -0.08764648 C28.34741211 -0.06877136 28.34741211 -0.06877136 32.03100586 0.30354309 C34.03100586 3.30354309 34.03100586 3.30354309 33.84350586 5.36604309 C33.03100586 7.30354309 33.03100586 7.30354309 30.03100586 9.30354309 C27.38039716 9.49920084 24.83750253 9.58365386 22.18725586 9.56916809 C21.0390033 9.57203827 21.0390033 9.57203827 19.86755371 9.57496643 C18.25032217 9.57632642 16.63307965 9.57264296 15.01586914 9.56428528 C12.54019656 9.55358282 10.06524961 9.56418653 7.58959961 9.57698059 C6.01798342 9.57565896 4.44636769 9.5730965 2.87475586 9.56916809 C2.1340686 9.57321655 1.39338135 9.57726501 0.63024902 9.58143616 C-3.11348483 9.54727123 -4.77364247 9.43377754 -7.96899414 7.30354309 C-8.28149414 4.80354309 -8.28149414 4.80354309 -7.96899414 2.30354309 C-5.36958845 -0.2958626 -3.54263977 0.04477498 0 0 Z " fill="#000000" transform="translate(931.968994140625,106.69645690917969)"/>
<path d="M0 0 C2.82170084 2.19465621 4.55742533 3.93782079 5.9375 7.25 C6.12276301 15.4015726 3.20421823 21.79975914 -2 28 C-3.3009962 29.04172293 -4.62711723 30.05502874 -6 31 C-7.32 29.35 -8.64 27.7 -10 26 C-8.02 23.03 -6.04 20.06 -4 17 C-6.475 16.01 -6.475 16.01 -9 15 C-10.875 13.3125 -10.875 13.3125 -12 11 C-12 6.76711284 -11.66316819 4.73895884 -8.8125 1.5625 C-5.43724821 -0.31263988 -3.7992366 -0.71235686 0 0 Z " fill="#000000" transform="translate(1145,142)"/>
<path d="M0 0 C0.72614502 0.00008057 1.45229004 0.00016113 2.20043945 0.00024414 C4.4150722 -0.00194063 6.62920561 -0.02008844 8.84375 -0.0390625 C10.245441 -0.04199669 11.64713437 -0.04398131 13.04882812 -0.04492188 C14.33072021 -0.04903076 15.6126123 -0.05313965 16.93334961 -0.05737305 C19.99023438 0.18554688 19.99023438 0.18554688 21.99023438 2.18554688 C21.61523438 5.31054688 21.61523438 5.31054688 20.99023438 8.18554688 C15.70848316 9.94613061 10.08065781 9.41264507 4.55273438 9.43554688 C3.31201172 9.45617187 2.07128906 9.47679688 0.79296875 9.49804688 C-0.39876953 9.50320312 -1.59050781 9.50835937 -2.81835938 9.51367188 C-3.90947021 9.52301758 -5.00058105 9.53236328 -6.12475586 9.54199219 C-9.31722688 9.14755979 -10.66889782 8.33261194 -13.00976562 6.18554688 C-11.56010395 -1.89113963 -7.3584008 0.02582486 0 0 Z " fill="#000000" transform="translate(875.009765625,106.814453125)"/>
<path d="M0 0 C2.9375 1.5 2.9375 1.5 5 4 C5.80967808 7.76307528 5.45360213 10.8943448 4 14.4375 C0.91353909 16.84879758 -2.12749164 17.30194997 -6 17 C-8.9375 15.5 -8.9375 15.5 -11 13 C-11.93605213 9.50540538 -12.3742539 7.15394952 -11.25 3.6875 C-8.12791772 -0.52731108 -4.88256794 -0.50509324 0 0 Z " fill="#000000" transform="translate(1145,102)"/>
<path d="M0 0 C4.95 0 9.9 0 15 0 C15 4.95 15 9.9 15 15 C10.05 15 5.1 15 0 15 C0 10.05 0 5.1 0 0 Z " fill="#000000" transform="translate(786,143)"/>
<path d="M0 0 C4.95 0 9.9 0 15 0 C15 4.95 15 9.9 15 15 C10.05 15 5.1 15 0 15 C0 10.05 0 5.1 0 0 Z " fill="#000000" transform="translate(786,93)"/>
<path d="M0 0 C0.91136719 -0.02900391 1.82273437 -0.05800781 2.76171875 -0.08789062 C9.47386747 -0.15176905 9.47386747 -0.15176905 12.765625 2.1953125 C14.125 4.3125 14.125 4.3125 14 6.5 C13.125 8.3125 13.125 8.3125 11.125 9.3125 C7.46350926 9.55264407 3.7934958 9.49768986 0.125 9.5 C-0.89851562 9.51224609 -1.92203125 9.52449219 -2.9765625 9.53710938 C-4.44222656 9.54000977 -4.44222656 9.54000977 -5.9375 9.54296875 C-6.83597656 9.54707764 -7.73445312 9.55118652 -8.66015625 9.55541992 C-10.875 9.3125 -10.875 9.3125 -12.875 7.3125 C-12.625 4.25 -12.625 4.25 -11.875 1.3125 C-8.24090202 -0.50454899 -4.00162452 0.04209282 0 0 Z " fill="#000000" transform="translate(874.875,121.6875)"/>
<path d="M0 0 C0.68964844 -0.01224609 1.37929688 -0.02449219 2.08984375 -0.03710938 C3.89477494 -0.04238695 5.69917842 0.06565542 7.5 0.1875 C9.5 2.1875 9.5 2.1875 9.8125 4.6875 C9.709375 5.5125 9.60625 6.3375 9.5 7.1875 C5.83236683 9.63258878 3.86568225 9.48635724 -0.5 9.5 C-2.35625 9.52513672 -2.35625 9.52513672 -4.25 9.55078125 C-7.5 9.1875 -7.5 9.1875 -9.44921875 7.83203125 C-10.5 6.1875 -10.5 6.1875 -10.3125 3.5625 C-8.69728621 -1.15889417 -4.28020736 0.00400019 0 0 Z " fill="#000000" transform="translate(903.5,138.8125)"/>
<path d="M0 0 C0.78246094 -0.02578125 1.56492187 -0.0515625 2.37109375 -0.078125 C4.5625 0.25 4.5625 0.25 6.36328125 1.6015625 C7.5625 3.25 7.5625 3.25 7.3125 5.875 C6.5625 8.25 6.5625 8.25 5.5625 9.25 C3.75322719 9.37487758 1.93853893 9.42570846 0.125 9.4375 C-0.86371094 9.45167969 -1.85242188 9.46585938 -2.87109375 9.48046875 C-5.4375 9.25 -5.4375 9.25 -7.4375 7.25 C-7.1875 4.1875 -7.1875 4.1875 -6.4375 1.25 C-4.11063547 0.08656773 -2.59028587 0.05104012 0 0 Z " fill="#000000" transform="translate(958.4375,121.75)"/>
<path d="M0 0 C0.886875 -0.00257812 1.77375 -0.00515625 2.6875 -0.0078125 C5 0.125 5 0.125 7 1.125 C7.1875 4 7.1875 4 7 7.125 C3.32235984 9.57676011 0.27326371 9.82862977 -4 9.125 C-6.5625 7.375 -6.5625 7.375 -8 5.125 C-7.875 2.9375 -7.875 2.9375 -7 1.125 C-4.51245214 -0.11877393 -2.77344699 -0.00806235 0 0 Z " fill="#000000" transform="translate(912,106.875)"/>
</svg>
